<svg viewBox="-20.000000 -19.000000 336.000000 216.000000" xmlns="http://www.w3.org/2000/svg">
  <line x1="260.000000" y1="77.000000" x2="260.000000" y2="85.000000" stroke="black" stroke-width="1.600000" />
  <line x1="260.000000" y1="85.000000" x2="260.000000" y2="93.000000" stroke="black" stroke-width="1.600000" />
  <line x1="260.000000" y1="93.000000" x2="268.000000" y2="97.000000" stroke="black" stroke-width="1.600000" />
  <line x1="268.000000" y1="97.000000" x2="252.000000" y2="101.000000" stroke="black" stroke-width="1.600000" />
  <line x1="252.000000" y1="101.000000" x2="260.000000" y2="109.000000" stroke="black" stroke-width="1.600000" />
  <line x1="260.000000" y1="109.000000" x2="280.000000" y2="109.000000" stroke="black" stroke-width="1.600000" />
  <line x1="280.000000" y1="109.000000" x2="288.000000" y2="109.000000" stroke="black" stroke-width="1.600000" />
  <line x1="288.000000" y1="109.000000" x2="284.000000" y2="101.000000" stroke="black" stroke-width="1.600000" />
  <line x1="284.000000" y1="101.000000" x2="276.000000" y2="101.000000" stroke="black" stroke-width="1.600000" />
  <line x1="276.000000" y1="101.000000" x2="276.000000" y2="93.000000" stroke="black" stroke-width="1.600000" />
  <line x1="276.000000" y1="93.000000" x2="284.000000" y2="93.000000" stroke="black" stroke-width="1.600000" />
  <line x1="284.000000" y1="93.000000" x2="276.000000" y2="85.000000" stroke="black" stroke-width="1.600000" />
  <line x1="276.000000" y1="85.000000" x2="284.000000" y2="85.000000" stroke="black" stroke-width="1.600000" />
  <line x1="284.000000" y1="85.000000" x2="284.000000" y2="77.000000" stroke="black" stroke-width="1.600000" />
  <line x1="284.000000" y1="77.000000" x2="276.000000" y2="77.000000" stroke="black" stroke-width="1.600000" />
  <line x1="276.000000" y1="77.000000" x2="276.000000" y2="69.000000" stroke="black" stroke-width="1.600000" />
  <line x1="276.000000" y1="69.000000" x2="284.000000" y2="69.000000" stroke="black" stroke-width="1.600000" />
  <line x1="284.000000" y1="69.000000" x2="284.000000" y2="61.000000" stroke="black" stroke-width="1.600000" />
  <line x1="284.000000" y1="61.000000" x2="284.000000" y2="53.000000" stroke="black" stroke-width="1.600000" />
  <line x1="284.000000" y1="53.000000" x2="276.000000" y2="61.000000" stroke="black" stroke-width="1.600000" />
  <line x1="276.000000" y1="61.000000" x2="276.000000" y2="53.000000" stroke="black" stroke-width="1.600000" />
  <line x1="276.000000" y1="53.000000" x2="260.000000" y2="45.000000" stroke="black" stroke-width="1.600000" />
  <line x1="260.000000" y1="45.000000" x2="260.000000" y2="37.000000" stroke="black" stroke-width="1.600000" />
  <line x1="260.000000" y1="37.000000" x2="260.000000" y2="29.000000" stroke="black" stroke-width="1.600000" />
  <line x1="260.000000" y1="29.000000" x2="252.000000" y2="21.000000" stroke="black" stroke-width="1.600000" />
  <line x1="252.000000" y1="21.000000" x2="236.000000" y2="21.000000" stroke="black" stroke-width="1.600000" />
  <line x1="236.000000" y1="21.000000" x2="228.000000" y2="21.000000" stroke="black" stroke-width="1.600000" />
  <line x1="228.000000" y1="21.000000" x2="236.000000" y2="29.000000" stroke="black" stroke-width="1.600000" />
  <line x1="236.000000" y1="29.000000" x2="228.000000" y2="29.000000" stroke="black" stroke-width="1.600000" />
  <line x1="228.000000" y1="29.000000" x2="228.000000" y2="37.000000" stroke="black" stroke-width="1.600000" />
  <line x1="228.000000" y1="37.000000" x2="236.000000" y2="37.000000" stroke="black" stroke-width="1.600000" />
  <line x1="236.000000" y1="37.000000" x2="236.000000" y2="45.000000" stroke="black" stroke-width="1.600000" />
  <line x1="236.000000" y1="45.000000" x2="228.000000" y2="45.000000" stroke="black" stroke-width="1.600000" />
  <line x1="228.000000" y1="45.000000" x2="228.000000" y2="53.000000" stroke="black" stroke-width="1.600000" />
  <line x1="228.000000" y1="53.000000" x2="236.000000" y2="53.000000" stroke="black" stroke-width="1.600000" />
  <line x1="236.000000" y1="53.000000" x2="236.000000" y2="61.000000" stroke="black" stroke-width="1.600000" />
  <line x1="236.000000" y1="61.000000" x2="228.000000" y2="61.000000" stroke="black" stroke-width="1.600000" />
  <line x1="228.000000" y1="61.000000" x2="228.000000" y2="69.000000" stroke="black" stroke-width="1.600000" />
  <line x1="228.000000" y1="69.000000" x2="220.000000" y2="73.000000" stroke="black" stroke-width="1.600000" />
  <line x1="220.000000" y1="73.000000" x2="212.000000" y2="65.000000" stroke="black" stroke-width="1.600000" />
  <line x1="212.000000" y1="65.000000" x2="204.000000" y2="57.000000" stroke="black" stroke-width="1.600000" />
  <line x1="204.000000" y1="57.000000" x2="196.000000" y2="49.000000" stroke="black" stroke-width="1.600000" />
  <line x1="196.000000" y1="49.000000" x2="188.000000" y2="41.000000" stroke="black" stroke-width="1.600000" />
  <line x1="188.000000" y1="41.000000" x2="180.000000" y2="45.000000" stroke="black" stroke-width="1.600000" />
  <line x1="180.000000" y1="45.000000" x2="180.000000" y2="53.000000" stroke="black" stroke-width="1.600000" />
  <line x1="180.000000" y1="53.000000" x2="180.000000" y2="61.000000" stroke="black" stroke-width="1.600000" />
  <line x1="180.000000" y1="61.000000" x2="180.000000" y2="69.000000" stroke="black" stroke-width="1.600000" />
  <line x1="180.000000" y1="69.000000" x2="180.000000" y2="77.000000" stroke="black" stroke-width="1.600000" />
  <line x1="180.000000" y1="77.000000" x2="180.000000" y2="85.000000" stroke="black" stroke-width="1.600000" />
  <line x1="180.000000" y1="85.000000" x2="172.000000" y2="85.000000" stroke="black" stroke-width="1.600000" />
  <line x1="172.000000" y1="85.000000" x2="172.000000" y2="77.000000" stroke="black" stroke-width="1.600000" />
  <line x1="172.000000" y1="77.000000" x2="172.000000" y2="69.000000" stroke="black" stroke-width="1.600000" />
  <line x1="172.000000" y1="69.000000" x2="172.000000" y2="61.000000" stroke="black" stroke-width="1.600000" />
  <line x1="172.000000" y1="61.000000" x2="172.000000" y2="53.000000" stroke="black" stroke-width="1.600000" />
  <line x1="172.000000" y1="53.000000" x2="172.000000" y2="45.000000" stroke="black" stroke-width="1.600000" />
  <line x1="172.000000" y1="45.000000" x2="172.000000" y2="37.000000" stroke="black" stroke-width="1.600000" />
  <line x1="172.000000" y1="37.000000" x2="180.000000" y2="37.000000" stroke="black" stroke-width="1.600000" />
  <line x1="180.000000" y1="37.000000" x2="180.000000" y2="29.000000" stroke="black" stroke-width="1.600000" />
  <line x1="180.000000" y1="29.000000" x2="172.000000" y2="29.000000" stroke="black" stroke-width="1.600000" />
  <line x1="172.000000" y1="29.000000" x2="180.000000" y2="21.000000" stroke="black" stroke-width="1.600000" />
  <line x1="180.000000" y1="21.000000" x2="172.000000" y2="21.000000" stroke="black" stroke-width="1.600000" />
  <line x1="172.000000" y1="21.000000" x2="156.000000" y2="25.000000" stroke="black" stroke-width="1.600000" />
  <line x1="156.000000" y1="25.000000" x2="162.000000" y2="9.000000" stroke="black" stroke-width="1.600000" />
  <line x1="162.000000" y1="9.000000" x2="148.000000" y2="9.000000" stroke="black" stroke-width="1.600000" />
  <line x1="148.000000" y1="9.000000" x2="136.000000" y2="9.000000" stroke="black" stroke-width="1.600000" />
  <line x1="136.000000" y1="9.000000" x2="128.000000" y2="9.000000" stroke="black" stroke-width="1.600000" />
  <line x1="128.000000" y1="9.000000" x2="120.000000" y2="9.000000" stroke="black" stroke-width="1.600000" />
  <line x1="120.000000" y1="9.000000" x2="124.000000" y2="21.000000" stroke="black" stroke-width="1.600000" />
  <line x1="124.000000" y1="21.000000" x2="132.000000" y2="21.000000" stroke="black" stroke-width="1.600000" />
  <line x1="132.000000" y1="21.000000" x2="124.000000" y2="29.000000" stroke="black" stroke-width="1.600000" />
  <line x1="124.000000" y1="29.000000" x2="124.000000" y2="37.000000" stroke="black" stroke-width="1.600000" />
  <line x1="124.000000" y1="37.000000" x2="124.000000" y2="45.000000" stroke="black" stroke-width="1.600000" />
  <line x1="124.000000" y1="45.000000" x2="124.000000" y2="53.000000" stroke="black" stroke-width="1.600000" />
  <line x1="124.000000" y1="53.000000" x2="104.000000" y2="41.000000" stroke="black" stroke-width="1.600000" />
  <line x1="104.000000" y1="41.000000" x2="104.000000" y2="33.000000" stroke="black" stroke-width="1.600000" />
  <line x1="104.000000" y1="33.000000" x2="104.000000" y2="25.000000" stroke="black" stroke-width="1.600000" />
  <line x1="104.000000" y1="25.000000" x2="104.000000" y2="17.000000" stroke="black" stroke-width="1.600000" />
  <line x1="104.000000" y1="17.000000" x2="92.000000" y2="9.000000" stroke="black" stroke-width="1.600000" />
  <line x1="92.000000" y1="9.000000" x2="80.000000" y2="9.000000" stroke="black" stroke-width="1.600000" />
  <line x1="80.000000" y1="9.000000" x2="72.000000" y2="9.000000" stroke="black" stroke-width="1.600000" />
  <line x1="72.000000" y1="9.000000" x2="80.000000" y2="25.000000" stroke="black" stroke-width="1.600000" />
  <line x1="80.000000" y1="25.000000" x2="80.000000" y2="25.000000" stroke="black" stroke-width="1.600000" />
  <line x1="80.000000" y1="25.000000" x2="72.000000" y2="25.000000" stroke="black" stroke-width="1.600000" />
  <line x1="72.000000" y1="25.000000" x2="64.000000" y2="21.000000" stroke="black" stroke-width="1.600000" />
  <line x1="64.000000" y1="21.000000" x2="56.000000" y2="41.000000" stroke="black" stroke-width="1.600000" />
  <line x1="56.000000" y1="41.000000" x2="56.000000" y2="33.000000" stroke="black" stroke-width="1.600000" />
  <line x1="56.000000" y1="33.000000" x2="56.000000" y2="25.000000" stroke="black" stroke-width="1.600000" />
  <line x1="56.000000" y1="25.000000" x2="56.000000" y2="17.000000" stroke="black" stroke-width="1.600000" />
  <line x1="56.000000" y1="17.000000" x2="56.000000" y2="9.000000" stroke="black" stroke-width="1.600000" />
  <line x1="56.000000" y1="9.000000" x2="44.000000" y2="11.000000" stroke="black" stroke-width="1.600000" />
  <line x1="44.000000" y1="11.000000" x2="32.000000" y2="17.000000" stroke="black" stroke-width="1.600000" />
  <line x1="32.000000" y1="17.000000" x2="24.000000" y2="17.000000" stroke="black" stroke-width="1.600000" />
  <line x1="24.000000" y1="17.000000" x2="16.000000" y2="17.000000" stroke="black" stroke-width="1.600000" />
  <line x1="16.000000" y1="17.000000" x2="16.000000" y2="25.000000" stroke="black" stroke-width="1.600000" />
  <line x1="16.000000" y1="25.000000" x2="24.000000" y2="25.000000" stroke="black" stroke-width="1.600000" />
  <line x1="24.000000" y1="25.000000" x2="32.000000" y2="25.000000" stroke="black" stroke-width="1.600000" />
  <line x1="32.000000" y1="25.000000" x2="44.000000" y2="27.000000" stroke="black" stroke-width="1.600000" />
  <line x1="44.000000" y1="27.000000" x2="44.000000" y2="35.000000" stroke="black" stroke-width="1.600000" />
  <line x1="44.000000" y1="35.000000" x2="44.000000" y2="43.000000" stroke="black" stroke-width="1.600000" />
  <line x1="44.000000" y1="43.000000" x2="32.000000" y2="41.000000" stroke="black" stroke-width="1.600000" />
  <line x1="32.000000" y1="41.000000" x2="24.000000" y2="45.000000" stroke="black" stroke-width="1.600000" />
  <line x1="24.000000" y1="45.000000" x2="8.000000" y2="41.000000" stroke="black" stroke-width="1.600000" />
  <line x1="8.000000" y1="41.000000" x2="8.000000" y2="49.000000" stroke="black" stroke-width="1.600000" />
  <line x1="8.000000" y1="49.000000" x2="8.000000" y2="57.000000" stroke="black" stroke-width="1.600000" />
  <line x1="8.000000" y1="57.000000" x2="16.000000" y2="57.000000" stroke="black" stroke-width="1.600000" />
  <line x1="16.000000" y1="57.000000" x2="8.000000" y2="65.000000" stroke="black" stroke-width="1.600000" />
  <line x1="8.000000" y1="65.000000" x2="8.000000" y2="73.000000" stroke="black" stroke-width="1.600000" />
  <line x1="8.000000" y1="73.000000" x2="8.000000" y2="81.000000" stroke="black" stroke-width="1.600000" />
  <line x1="8.000000" y1="81.000000" x2="8.000000" y2="89.000000" stroke="black" stroke-width="1.600000" />
  <line x1="8.000000" y1="89.000000" x2="8.000000" y2="97.000000" stroke="black" stroke-width="1.600000" />
  <line x1="8.000000" y1="97.000000" x2="16.000000" y2="97.000000" stroke="black" stroke-width="1.600000" />
  <line x1="16.000000" y1="97.000000" x2="24.000000" y2="89.000000" stroke="black" stroke-width="1.600000" />
  <line x1="24.000000" y1="89.000000" x2="32.000000" y2="89.000000" stroke="black" stroke-width="1.600000" />
  <line x1="32.000000" y1="89.000000" x2="48.000000" y2="99.000000" stroke="black" stroke-width="1.600000" />
  <line x1="48.000000" y1="99.000000" x2="40.000000" y2="99.000000" stroke="black" stroke-width="1.600000" />
  <line x1="40.000000" y1="99.000000" x2="32.000000" y2="97.000000" stroke="black" stroke-width="1.600000" />
  <line x1="32.000000" y1="97.000000" x2="8.000000" y2="109.000000" stroke="black" stroke-width="1.600000" />
  <line x1="8.000000" y1="109.000000" x2="16.000000" y2="109.000000" stroke="black" stroke-width="1.600000" />
  <line x1="16.000000" y1="109.000000" x2="32.000000" y2="113.000000" stroke="black" stroke-width="1.600000" />
  <line x1="32.000000" y1="113.000000" x2="40.000000" y2="113.000000" stroke="black" stroke-width="1.600000" />
  <line x1="40.000000" y1="113.000000" x2="40.000000" y2="121.000000" stroke="black" stroke-width="1.600000" />
  <line x1="40.000000" y1="121.000000" x2="32.000000" y2="121.000000" stroke="black" stroke-width="1.600000" />
  <line x1="32.000000" y1="121.000000" x2="32.000000" y2="129.000000" stroke="black" stroke-width="1.600000" />
  <line x1="32.000000" y1="129.000000" x2="32.000000" y2="137.000000" stroke="black" stroke-width="1.600000" />
  <line x1="32.000000" y1="137.000000" x2="40.000000" y2="129.000000" stroke="black" stroke-width="1.600000" />
  <line x1="40.000000" y1="129.000000" x2="40.000000" y2="137.000000" stroke="black" stroke-width="1.600000" />
  <line x1="40.000000" y1="137.000000" x2="40.000000" y2="145.000000" stroke="black" stroke-width="1.600000" />
  <line x1="40.000000" y1="145.000000" x2="32.000000" y2="145.000000" stroke="black" stroke-width="1.600000" />
  <line x1="32.000000" y1="145.000000" x2="40.000000" y2="153.000000" stroke="black" stroke-width="1.600000" />
  <line x1="40.000000" y1="153.000000" x2="32.000000" y2="153.000000" stroke="black" stroke-width="1.600000" />
  <line x1="32.000000" y1="153.000000" x2="32.000000" y2="161.000000" stroke="black" stroke-width="1.600000" />
  <line x1="32.000000" y1="161.000000" x2="32.000000" y2="169.000000" stroke="black" stroke-width="1.600000" />
  <line x1="32.000000" y1="169.000000" x2="40.000000" y2="169.000000" stroke="black" stroke-width="1.600000" />
  <line x1="40.000000" y1="169.000000" x2="40.000000" y2="161.000000" stroke="black" stroke-width="1.600000" />
  <line x1="40.000000" y1="161.000000" x2="56.000000" y2="161.000000" stroke="black" stroke-width="1.600000" />
  <line x1="56.000000" y1="161.000000" x2="56.000000" y2="169.000000" stroke="black" stroke-width="1.600000" />
  <line x1="56.000000" y1="169.000000" x2="64.000000" y2="165.000000" stroke="black" stroke-width="1.600000" />
  <line x1="64.000000" y1="165.000000" x2="90.000000" y2="165.000000" stroke="black" stroke-width="1.600000" />
  <line x1="90.000000" y1="165.000000" x2="80.000000" y2="157.000000" stroke="black" stroke-width="1.600000" />
  <line x1="80.000000" y1="157.000000" x2="64.000000" y2="157.000000" stroke="black" stroke-width="1.600000" />
  <line x1="64.000000" y1="157.000000" x2="56.000000" y2="153.000000" stroke="black" stroke-width="1.600000" />
  <line x1="56.000000" y1="153.000000" x2="56.000000" y2="145.000000" stroke="black" stroke-width="1.600000" />
  <line x1="56.000000" y1="145.000000" x2="56.000000" y2="137.000000" stroke="black" stroke-width="1.600000" />
  <line x1="56.000000" y1="137.000000" x2="56.000000" y2="129.000000" stroke="black" stroke-width="1.600000" />
  <line x1="56.000000" y1="129.000000" x2="56.000000" y2="121.000000" stroke="black" stroke-width="1.600000" />
  <line x1="56.000000" y1="121.000000" x2="56.000000" y2="113.000000" stroke="black" stroke-width="1.600000" />
  <line x1="56.000000" y1="113.000000" x2="56.000000" y2="105.000000" stroke="black" stroke-width="1.600000" />
  <line x1="56.000000" y1="105.000000" x2="56.000000" y2="97.000000" stroke="black" stroke-width="1.600000" />
  <line x1="56.000000" y1="97.000000" x2="56.000000" y2="89.000000" stroke="black" stroke-width="1.600000" />
  <line x1="56.000000" y1="89.000000" x2="56.000000" y2="81.000000" stroke="black" stroke-width="1.600000" />
  <line x1="56.000000" y1="81.000000" x2="48.000000" y2="83.000000" stroke="black" stroke-width="1.600000" />
  <line x1="48.000000" y1="83.000000" x2="40.000000" y2="83.000000" stroke="black" stroke-width="1.600000" />
  <line x1="40.000000" y1="83.000000" x2="32.000000" y2="81.000000" stroke="black" stroke-width="1.600000" />
  <line x1="32.000000" y1="81.000000" x2="32.000000" y2="73.000000" stroke="black" stroke-width="1.600000" />
  <line x1="32.000000" y1="73.000000" x2="40.000000" y2="73.000000" stroke="black" stroke-width="1.600000" />
  <line x1="40.000000" y1="73.000000" x2="48.000000" y2="73.000000" stroke="black" stroke-width="1.600000" />
  <line x1="48.000000" y1="73.000000" x2="56.000000" y2="73.000000" stroke="black" stroke-width="1.600000" />
  <line x1="56.000000" y1="73.000000" x2="56.000000" y2="65.000000" stroke="black" stroke-width="1.600000" />
  <line x1="56.000000" y1="65.000000" x2="48.000000" y2="63.000000" stroke="black" stroke-width="1.600000" />
  <line x1="48.000000" y1="63.000000" x2="40.000000" y2="63.000000" stroke="black" stroke-width="1.600000" />
  <line x1="40.000000" y1="63.000000" x2="32.000000" y2="65.000000" stroke="black" stroke-width="1.600000" />
  <line x1="32.000000" y1="65.000000" x2="32.000000" y2="57.000000" stroke="black" stroke-width="1.600000" />
  <line x1="32.000000" y1="57.000000" x2="32.000000" y2="49.000000" stroke="black" stroke-width="1.600000" />
  <line x1="32.000000" y1="49.000000" x2="40.000000" y2="51.000000" stroke="black" stroke-width="1.600000" />
  <line x1="40.000000" y1="51.000000" x2="48.000000" y2="51.000000" stroke="black" stroke-width="1.600000" />
  <line x1="48.000000" y1="51.000000" x2="56.000000" y2="57.000000" stroke="black" stroke-width="1.600000" />
  <line x1="56.000000" y1="57.000000" x2="56.000000" y2="49.000000" stroke="black" stroke-width="1.600000" />
  <line x1="56.000000" y1="49.000000" x2="64.000000" y2="41.000000" stroke="black" stroke-width="1.600000" />
  <line x1="64.000000" y1="41.000000" x2="72.000000" y2="49.000000" stroke="black" stroke-width="1.600000" />
  <line x1="72.000000" y1="49.000000" x2="72.000000" y2="41.000000" stroke="black" stroke-width="1.600000" />
  <line x1="72.000000" y1="41.000000" x2="80.000000" y2="41.000000" stroke="black" stroke-width="1.600000" />
  <line x1="80.000000" y1="41.000000" x2="88.000000" y2="49.000000" stroke="black" stroke-width="1.600000" />
  <line x1="88.000000" y1="49.000000" x2="104.000000" y2="49.000000" stroke="black" stroke-width="1.600000" />
  <line x1="104.000000" y1="49.000000" x2="104.000000" y2="57.000000" stroke="black" stroke-width="1.600000" />
  <line x1="104.000000" y1="57.000000" x2="104.000000" y2="65.000000" stroke="black" stroke-width="1.600000" />
  <line x1="104.000000" y1="65.000000" x2="104.000000" y2="73.000000" stroke="black" stroke-width="1.600000" />
  <line x1="104.000000" y1="73.000000" x2="104.000000" y2="81.000000" stroke="black" stroke-width="1.600000" />
  <line x1="104.000000" y1="81.000000" x2="104.000000" y2="89.000000" stroke="black" stroke-width="1.600000" />
  <line x1="104.000000" y1="89.000000" x2="104.000000" y2="97.000000" stroke="black" stroke-width="1.600000" />
  <line x1="104.000000" y1="97.000000" x2="104.000000" y2="105.000000" stroke="black" stroke-width="1.600000" />
  <line x1="104.000000" y1="105.000000" x2="104.000000" y2="113.000000" stroke="black" stroke-width="1.600000" />
  <line x1="104.000000" y1="113.000000" x2="104.000000" y2="121.000000" stroke="black" stroke-width="1.600000" />
  <line x1="104.000000" y1="121.000000" x2="104.000000" y2="129.000000" stroke="black" stroke-width="1.600000" />
  <line x1="104.000000" y1="129.000000" x2="104.000000" y2="137.000000" stroke="black" stroke-width="1.600000" />
  <line x1="104.000000" y1="137.000000" x2="104.000000" y2="145.000000" stroke="black" stroke-width="1.600000" />
  <line x1="104.000000" y1="145.000000" x2="104.000000" y2="153.000000" stroke="black" stroke-width="1.600000" />
  <line x1="104.000000" y1="153.000000" x2="104.000000" y2="161.000000" stroke="black" stroke-width="1.600000" />
  <line x1="104.000000" y1="161.000000" x2="104.000000" y2="169.000000" stroke="black" stroke-width="1.600000" />
  <line x1="104.000000" y1="169.000000" x2="116.000000" y2="161.000000" stroke="black" stroke-width="1.600000" />
  <line x1="116.000000" y1="161.000000" x2="124.000000" y2="169.000000" stroke="black" stroke-width="1.600000" />
  <line x1="124.000000" y1="169.000000" x2="132.000000" y2="169.000000" stroke="black" stroke-width="1.600000" />
  <line x1="132.000000" y1="169.000000" x2="140.000000" y2="169.000000" stroke="black" stroke-width="1.600000" />
  <line x1="140.000000" y1="169.000000" x2="148.000000" y2="169.000000" stroke="black" stroke-width="1.600000" />
  <line x1="148.000000" y1="169.000000" x2="156.000000" y2="169.000000" stroke="black" stroke-width="1.600000" />
  <line x1="156.000000" y1="169.000000" x2="164.000000" y2="169.000000" stroke="black" stroke-width="1.600000" />
  <line x1="164.000000" y1="169.000000" x2="172.000000" y2="169.000000" stroke="black" stroke-width="1.600000" />
  <line x1="172.000000" y1="169.000000" x2="188.000000" y2="169.000000" stroke="black" stroke-width="1.600000" />
  <line x1="188.000000" y1="169.000000" x2="196.000000" y2="169.000000" stroke="black" stroke-width="1.600000" />
  <line x1="196.000000" y1="169.000000" x2="196.000000" y2="161.000000" stroke="black" stroke-width="1.600000" />
  <line x1="196.000000" y1="161.000000" x2="204.000000" y2="169.000000" stroke="black" stroke-width="1.600000" />
  <line x1="204.000000" y1="169.000000" x2="212.000000" y2="169.000000" stroke="black" stroke-width="1.600000" />
  <line x1="212.000000" y1="169.000000" x2="220.000000" y2="169.000000" stroke="black" stroke-width="1.600000" />
  <line x1="220.000000" y1="169.000000" x2="228.000000" y2="161.000000" stroke="black" stroke-width="1.600000" />
  <line x1="228.000000" y1="161.000000" x2="228.000000" y2="169.000000" stroke="black" stroke-width="1.600000" />
  <line x1="228.000000" y1="169.000000" x2="236.000000" y2="169.000000" stroke="black" stroke-width="1.600000" />
  <line x1="236.000000" y1="169.000000" x2="246.000000" y2="157.000000" stroke="black" stroke-width="1.600000" />
  <line x1="246.000000" y1="157.000000" x2="256.000000" y2="157.000000" stroke="black" stroke-width="1.600000" />
  <line x1="256.000000" y1="157.000000" x2="288.000000" y2="149.000000" stroke="black" stroke-width="1.600000" />
  <line x1="288.000000" y1="149.000000" x2="288.000000" y2="129.000000" stroke="black" stroke-width="1.600000" />
  <line x1="288.000000" y1="129.000000" x2="280.000000" y2="133.000000" stroke="black" stroke-width="1.600000" />
  <line x1="280.000000" y1="133.000000" x2="270.000000" y2="133.000000" stroke="black" stroke-width="1.600000" />
  <line x1="270.000000" y1="133.000000" x2="260.000000" y2="129.000000" stroke="black" stroke-width="1.600000" />
  <line x1="260.000000" y1="129.000000" x2="252.000000" y2="125.000000" stroke="black" stroke-width="1.600000" />
  <line x1="252.000000" y1="125.000000" x2="256.000000" y2="141.000000" stroke="black" stroke-width="1.600000" />
  <line x1="256.000000" y1="141.000000" x2="246.000000" y2="141.000000" stroke="black" stroke-width="1.600000" />
  <line x1="246.000000" y1="141.000000" x2="236.000000" y2="145.000000" stroke="black" stroke-width="1.600000" />
  <line x1="236.000000" y1="145.000000" x2="228.000000" y2="145.000000" stroke="black" stroke-width="1.600000" />
  <line x1="228.000000" y1="145.000000" x2="220.000000" y2="145.000000" stroke="black" stroke-width="1.600000" />
  <line x1="220.000000" y1="145.000000" x2="212.000000" y2="145.000000" stroke="black" stroke-width="1.600000" />
  <line x1="212.000000" y1="145.000000" x2="204.000000" y2="145.000000" stroke="black" stroke-width="1.600000" />
  <line x1="204.000000" y1="145.000000" x2="196.000000" y2="145.000000" stroke="black" stroke-width="1.600000" />
  <line x1="196.000000" y1="145.000000" x2="188.000000" y2="145.000000" stroke="black" stroke-width="1.600000" />
  <line x1="188.000000" y1="145.000000" x2="172.000000" y2="145.000000" stroke="black" stroke-width="1.600000" />
  <line x1="172.000000" y1="145.000000" x2="164.000000" y2="145.000000" stroke="black" stroke-width="1.600000" />
  <line x1="164.000000" y1="145.000000" x2="156.000000" y2="145.000000" stroke="black" stroke-width="1.600000" />
  <line x1="156.000000" y1="145.000000" x2="164.000000" y2="137.000000" stroke="black" stroke-width="1.600000" />
  <line x1="164.000000" y1="137.000000" x2="156.000000" y2="137.000000" stroke="black" stroke-width="1.600000" />
  <line x1="156.000000" y1="137.000000" x2="148.000000" y2="145.000000" stroke="black" stroke-width="1.600000" />
  <line x1="148.000000" y1="145.000000" x2="148.000000" y2="137.000000" stroke="black" stroke-width="1.600000" />
  <line x1="148.000000" y1="137.000000" x2="140.000000" y2="137.000000" stroke="black" stroke-width="1.600000" />
  <line x1="140.000000" y1="137.000000" x2="140.000000" y2="145.000000" stroke="black" stroke-width="1.600000" />
  <line x1="140.000000" y1="145.000000" x2="132.000000" y2="145.000000" stroke="black" stroke-width="1.600000" />
  <line x1="132.000000" y1="145.000000" x2="132.000000" y2="137.000000" stroke="black" stroke-width="1.600000" />
  <line x1="132.000000" y1="137.000000" x2="124.000000" y2="145.000000" stroke="black" stroke-width="1.600000" />
  <line x1="124.000000" y1="145.000000" x2="116.000000" y2="145.000000" stroke="black" stroke-width="1.600000" />
  <line x1="116.000000" y1="145.000000" x2="124.000000" y2="125.000000" stroke="black" stroke-width="1.600000" />
  <line x1="124.000000" y1="125.000000" x2="124.000000" y2="117.000000" stroke="black" stroke-width="1.600000" />
  <line x1="124.000000" y1="117.000000" x2="124.000000" y2="109.000000" stroke="black" stroke-width="1.600000" />
  <line x1="124.000000" y1="109.000000" x2="124.000000" y2="101.000000" stroke="black" stroke-width="1.600000" />
  <line x1="124.000000" y1="101.000000" x2="124.000000" y2="93.000000" stroke="black" stroke-width="1.600000" />
  <line x1="124.000000" y1="93.000000" x2="124.000000" y2="85.000000" stroke="black" stroke-width="1.600000" />
  <line x1="124.000000" y1="85.000000" x2="124.000000" y2="77.000000" stroke="black" stroke-width="1.600000" />
  <line x1="124.000000" y1="77.000000" x2="124.000000" y2="69.000000" stroke="black" stroke-width="1.600000" />
  <line x1="124.000000" y1="69.000000" x2="124.000000" y2="61.000000" stroke="black" stroke-width="1.600000" />
  <line x1="124.000000" y1="61.000000" x2="132.000000" y2="61.000000" stroke="black" stroke-width="1.600000" />
  <line x1="132.000000" y1="61.000000" x2="140.000000" y2="65.000000" stroke="black" stroke-width="1.600000" />
  <line x1="140.000000" y1="65.000000" x2="132.000000" y2="81.000000" stroke="black" stroke-width="1.600000" />
  <line x1="132.000000" y1="81.000000" x2="148.000000" y2="85.000000" stroke="black" stroke-width="1.600000" />
  <line x1="148.000000" y1="85.000000" x2="164.000000" y2="81.000000" stroke="black" stroke-width="1.600000" />
  <line x1="164.000000" y1="81.000000" x2="172.000000" y2="93.000000" stroke="black" stroke-width="1.600000" />
  <line x1="172.000000" y1="93.000000" x2="180.000000" y2="93.000000" stroke="black" stroke-width="1.600000" />
  <line x1="180.000000" y1="93.000000" x2="172.000000" y2="101.000000" stroke="black" stroke-width="1.600000" />
  <line x1="172.000000" y1="101.000000" x2="172.000000" y2="109.000000" stroke="black" stroke-width="1.600000" />
  <line x1="172.000000" y1="109.000000" x2="172.000000" y2="117.000000" stroke="black" stroke-width="1.600000" />
  <line x1="172.000000" y1="117.000000" x2="172.000000" y2="125.000000" stroke="black" stroke-width="1.600000" />
  <line x1="172.000000" y1="125.000000" x2="180.000000" y2="125.000000" stroke="black" stroke-width="1.600000" />
  <line x1="180.000000" y1="125.000000" x2="180.000000" y2="117.000000" stroke="black" stroke-width="1.600000" />
  <line x1="180.000000" y1="117.000000" x2="180.000000" y2="109.000000" stroke="black" stroke-width="1.600000" />
  <line x1="180.000000" y1="109.000000" x2="180.000000" y2="101.000000" stroke="black" stroke-width="1.600000" />
  <line x1="180.000000" y1="101.000000" x2="188.000000" y2="93.000000" stroke="black" stroke-width="1.600000" />
  <line x1="188.000000" y1="93.000000" x2="196.000000" y2="101.000000" stroke="black" stroke-width="1.600000" />
  <line x1="196.000000" y1="101.000000" x2="204.000000" y2="109.000000" stroke="black" stroke-width="1.600000" />
  <line x1="204.000000" y1="109.000000" x2="212.000000" y2="117.000000" stroke="black" stroke-width="1.600000" />
  <line x1="212.000000" y1="117.000000" x2="220.000000" y2="125.000000" stroke="black" stroke-width="1.600000" />
  <line x1="220.000000" y1="125.000000" x2="228.000000" y2="125.000000" stroke="black" stroke-width="1.600000" />
  <line x1="228.000000" y1="125.000000" x2="228.000000" y2="117.000000" stroke="black" stroke-width="1.600000" />
  <line x1="228.000000" y1="117.000000" x2="228.000000" y2="109.000000" stroke="black" stroke-width="1.600000" />
  <line x1="228.000000" y1="109.000000" x2="236.000000" y2="101.000000" stroke="black" stroke-width="1.600000" />
  <line x1="236.000000" y1="101.000000" x2="228.000000" y2="101.000000" stroke="black" stroke-width="1.600000" />
  <line x1="228.000000" y1="101.000000" x2="228.000000" y2="93.000000" stroke="black" stroke-width="1.600000" />
  <line x1="228.000000" y1="93.000000" x2="236.000000" y2="93.000000" stroke="black" stroke-width="1.600000" />
  <line x1="236.000000" y1="93.000000" x2="236.000000" y2="85.000000" stroke="black" stroke-width="1.600000" />
  <line x1="236.000000" y1="85.000000" x2="228.000000" y2="85.000000" stroke="black" stroke-width="1.600000" />
  <line x1="228.000000" y1="85.000000" x2="228.000000" y2="77.000000" stroke="black" stroke-width="1.600000" />
  <line x1="228.000000" y1="77.000000" x2="236.000000" y2="77.000000" stroke="black" stroke-width="1.600000" />
  <line x1="236.000000" y1="77.000000" x2="236.000000" y2="69.000000" stroke="black" stroke-width="1.600000" />
  <line x1="236.000000" y1="69.000000" x2="260.000000" y2="53.000000" stroke="black" stroke-width="1.600000" />
  <line x1="260.000000" y1="53.000000" x2="260.000000" y2="61.000000" stroke="black" stroke-width="1.600000" />
  <line x1="260.000000" y1="61.000000" x2="260.000000" y2="69.000000" stroke="black" stroke-width="1.600000" />
  <line x1="260.000000" y1="69.000000" x2="260.000000" y2="77.000000" stroke="black" stroke-width="1.600000" />
  <circle cx="260.000000" cy="77.000000" r="1.600000"/>
  <circle cx="260.000000" cy="85.000000" r="1.600000"/>
  <circle cx="260.000000" cy="93.000000" r="1.600000"/>
  <circle cx="268.000000" cy="97.000000" r="1.600000"/>
  <circle cx="252.000000" cy="101.000000" r="1.600000"/>
  <circle cx="260.000000" cy="109.000000" r="1.600000"/>
  <circle cx="280.000000" cy="109.000000" r="1.600000"/>
  <circle cx="288.000000" cy="109.000000" r="1.600000"/>
  <circle cx="284.000000" cy="101.000000" r="1.600000"/>
  <circle cx="276.000000" cy="101.000000" r="1.600000"/>
  <circle cx="276.000000" cy="93.000000" r="1.600000"/>
  <circle cx="284.000000" cy="93.000000" r="1.600000"/>
  <circle cx="276.000000" cy="85.000000" r="1.600000"/>
  <circle cx="284.000000" cy="85.000000" r="1.600000"/>
  <circle cx="284.000000" cy="77.000000" r="1.600000"/>
  <circle cx="276.000000" cy="77.000000" r="1.600000"/>
  <circle cx="276.000000" cy="69.000000" r="1.600000"/>
  <circle cx="284.000000" cy="69.000000" r="1.600000"/>
  <circle cx="284.000000" cy="61.000000" r="1.600000"/>
  <circle cx="284.000000" cy="53.000000" r="1.600000"/>
  <circle cx="276.000000" cy="61.000000" r="1.600000"/>
  <circle cx="276.000000" cy="53.000000" r="1.600000"/>
  <circle cx="260.000000" cy="45.000000" r="1.600000"/>
  <circle cx="260.000000" cy="37.000000" r="1.600000"/>
  <circle cx="260.000000" cy="29.000000" r="1.600000"/>
  <circle cx="252.000000" cy="21.000000" r="1.600000"/>
  <circle cx="236.000000" cy="21.000000" r="1.600000"/>
  <circle cx="228.000000" cy="21.000000" r="1.600000"/>
  <circle cx="236.000000" cy="29.000000" r="1.600000"/>
  <circle cx="228.000000" cy="29.000000" r="1.600000"/>
  <circle cx="228.000000" cy="37.000000" r="1.600000"/>
  <circle cx="236.000000" cy="37.000000" r="1.600000"/>
  <circle cx="236.000000" cy="45.000000" r="1.600000"/>
  <circle cx="228.000000" cy="45.000000" r="1.600000"/>
  <circle cx="228.000000" cy="53.000000" r="1.600000"/>
  <circle cx="236.000000" cy="53.000000" r="1.600000"/>
  <circle cx="236.000000" cy="61.000000" r="1.600000"/>
  <circle cx="228.000000" cy="61.000000" r="1.600000"/>
  <circle cx="228.000000" cy="69.000000" r="1.600000"/>
  <circle cx="220.000000" cy="73.000000" r="1.600000"/>
  <circle cx="212.000000" cy="65.000000" r="1.600000"/>
  <circle cx="204.000000" cy="57.000000" r="1.600000"/>
  <circle cx="196.000000" cy="49.000000" r="1.600000"/>
  <circle cx="188.000000" cy="41.000000" r="1.600000"/>
  <circle cx="180.000000" cy="45.000000" r="1.600000"/>
  <circle cx="180.000000" cy="53.000000" r="1.600000"/>
  <circle cx="180.000000" cy="61.000000" r="1.600000"/>
  <circle cx="180.000000" cy="69.000000" r="1.600000"/>
  <circle cx="180.000000" cy="77.000000" r="1.600000"/>
  <circle cx="180.000000" cy="85.000000" r="1.600000"/>
  <circle cx="172.000000" cy="85.000000" r="1.600000"/>
  <circle cx="172.000000" cy="77.000000" r="1.600000"/>
  <circle cx="172.000000" cy="69.000000" r="1.600000"/>
  <circle cx="172.000000" cy="61.000000" r="1.600000"/>
  <circle cx="172.000000" cy="53.000000" r="1.600000"/>
  <circle cx="172.000000" cy="45.000000" r="1.600000"/>
  <circle cx="172.000000" cy="37.000000" r="1.600000"/>
  <circle cx="180.000000" cy="37.000000" r="1.600000"/>
  <circle cx="180.000000" cy="29.000000" r="1.600000"/>
  <circle cx="172.000000" cy="29.000000" r="1.600000"/>
  <circle cx="180.000000" cy="21.000000" r="1.600000"/>
  <circle cx="172.000000" cy="21.000000" r="1.600000"/>
  <circle cx="156.000000" cy="25.000000" r="1.600000"/>
  <circle cx="162.000000" cy="9.000000" r="1.600000"/>
  <circle cx="148.000000" cy="9.000000" r="1.600000"/>
  <circle cx="136.000000" cy="9.000000" r="1.600000"/>
  <circle cx="128.000000" cy="9.000000" r="1.600000"/>
  <circle cx="120.000000" cy="9.000000" r="1.600000"/>
  <circle cx="124.000000" cy="21.000000" r="1.600000"/>
  <circle cx="132.000000" cy="21.000000" r="1.600000"/>
  <circle cx="124.000000" cy="29.000000" r="1.600000"/>
  <circle cx="124.000000" cy="37.000000" r="1.600000"/>
  <circle cx="124.000000" cy="45.000000" r="1.600000"/>
  <circle cx="124.000000" cy="53.000000" r="1.600000"/>
  <circle cx="104.000000" cy="41.000000" r="1.600000"/>
  <circle cx="104.000000" cy="33.000000" r="1.600000"/>
  <circle cx="104.000000" cy="25.000000" r="1.600000"/>
  <circle cx="104.000000" cy="17.000000" r="1.600000"/>
  <circle cx="92.000000" cy="9.000000" r="1.600000"/>
  <circle cx="80.000000" cy="9.000000" r="1.600000"/>
  <circle cx="72.000000" cy="9.000000" r="1.600000"/>
  <circle cx="80.000000" cy="25.000000" r="1.600000"/>
  <circle cx="80.000000" cy="25.000000" r="1.600000"/>
  <circle cx="72.000000" cy="25.000000" r="1.600000"/>
  <circle cx="64.000000" cy="21.000000" r="1.600000"/>
  <circle cx="56.000000" cy="41.000000" r="1.600000"/>
  <circle cx="56.000000" cy="33.000000" r="1.600000"/>
  <circle cx="56.000000" cy="25.000000" r="1.600000"/>
  <circle cx="56.000000" cy="17.000000" r="1.600000"/>
  <circle cx="56.000000" cy="9.000000" r="1.600000"/>
  <circle cx="44.000000" cy="11.000000" r="1.600000"/>
  <circle cx="32.000000" cy="17.000000" r="1.600000"/>
  <circle cx="24.000000" cy="17.000000" r="1.600000"/>
  <circle cx="16.000000" cy="17.000000" r="1.600000"/>
  <circle cx="16.000000" cy="25.000000" r="1.600000"/>
  <circle cx="24.000000" cy="25.000000" r="1.600000"/>
  <circle cx="32.000000" cy="25.000000" r="1.600000"/>
  <circle cx="44.000000" cy="27.000000" r="1.600000"/>
  <circle cx="44.000000" cy="35.000000" r="1.600000"/>
  <circle cx="44.000000" cy="43.000000" r="1.600000"/>
  <circle cx="32.000000" cy="41.000000" r="1.600000"/>
  <circle cx="24.000000" cy="45.000000" r="1.600000"/>
  <circle cx="8.000000" cy="41.000000" r="1.600000"/>
  <circle cx="8.000000" cy="49.000000" r="1.600000"/>
  <circle cx="8.000000" cy="57.000000" r="1.600000"/>
  <circle cx="16.000000" cy="57.000000" r="1.600000"/>
  <circle cx="8.000000" cy="65.000000" r="1.600000"/>
  <circle cx="8.000000" cy="73.000000" r="1.600000"/>
  <circle cx="8.000000" cy="81.000000" r="1.600000"/>
  <circle cx="8.000000" cy="89.000000" r="1.600000"/>
  <circle cx="8.000000" cy="97.000000" r="1.600000"/>
  <circle cx="16.000000" cy="97.000000" r="1.600000"/>
  <circle cx="24.000000" cy="89.000000" r="1.600000"/>
  <circle cx="32.000000" cy="89.000000" r="1.600000"/>
  <circle cx="48.000000" cy="99.000000" r="1.600000"/>
  <circle cx="40.000000" cy="99.000000" r="1.600000"/>
  <circle cx="32.000000" cy="97.000000" r="1.600000"/>
  <circle cx="8.000000" cy="109.000000" r="1.600000"/>
  <circle cx="16.000000" cy="109.000000" r="1.600000"/>
  <circle cx="32.000000" cy="113.000000" r="1.600000"/>
  <circle cx="40.000000" cy="113.000000" r="1.600000"/>
  <circle cx="40.000000" cy="121.000000" r="1.600000"/>
  <circle cx="32.000000" cy="121.000000" r="1.600000"/>
  <circle cx="32.000000" cy="129.000000" r="1.600000"/>
  <circle cx="32.000000" cy="137.000000" r="1.600000"/>
  <circle cx="40.000000" cy="129.000000" r="1.600000"/>
  <circle cx="40.000000" cy="137.000000" r="1.600000"/>
  <circle cx="40.000000" cy="145.000000" r="1.600000"/>
  <circle cx="32.000000" cy="145.000000" r="1.600000"/>
  <circle cx="40.000000" cy="153.000000" r="1.600000"/>
  <circle cx="32.000000" cy="153.000000" r="1.600000"/>
  <circle cx="32.000000" cy="161.000000" r="1.600000"/>
  <circle cx="32.000000" cy="169.000000" r="1.600000"/>
  <circle cx="40.000000" cy="169.000000" r="1.600000"/>
  <circle cx="40.000000" cy="161.000000" r="1.600000"/>
  <circle cx="56.000000" cy="161.000000" r="1.600000"/>
  <circle cx="56.000000" cy="169.000000" r="1.600000"/>
  <circle cx="64.000000" cy="165.000000" r="1.600000"/>
  <circle cx="90.000000" cy="165.000000" r="1.600000"/>
  <circle cx="80.000000" cy="157.000000" r="1.600000"/>
  <circle cx="64.000000" cy="157.000000" r="1.600000"/>
  <circle cx="56.000000" cy="153.000000" r="1.600000"/>
  <circle cx="56.000000" cy="145.000000" r="1.600000"/>
  <circle cx="56.000000" cy="137.000000" r="1.600000"/>
  <circle cx="56.000000" cy="129.000000" r="1.600000"/>
  <circle cx="56.000000" cy="121.000000" r="1.600000"/>
  <circle cx="56.000000" cy="113.000000" r="1.600000"/>
  <circle cx="56.000000" cy="105.000000" r="1.600000"/>
  <circle cx="56.000000" cy="97.000000" r="1.600000"/>
  <circle cx="56.000000" cy="89.000000" r="1.600000"/>
  <circle cx="56.000000" cy="81.000000" r="1.600000"/>
  <circle cx="48.000000" cy="83.000000" r="1.600000"/>
  <circle cx="40.000000" cy="83.000000" r="1.600000"/>
  <circle cx="32.000000" cy="81.000000" r="1.600000"/>
  <circle cx="32.000000" cy="73.000000" r="1.600000"/>
  <circle cx="40.000000" cy="73.000000" r="1.600000"/>
  <circle cx="48.000000" cy="73.000000" r="1.600000"/>
  <circle cx="56.000000" cy="73.000000" r="1.600000"/>
  <circle cx="56.000000" cy="65.000000" r="1.600000"/>
  <circle cx="48.000000" cy="63.000000" r="1.600000"/>
  <circle cx="40.000000" cy="63.000000" r="1.600000"/>
  <circle cx="32.000000" cy="65.000000" r="1.600000"/>
  <circle cx="32.000000" cy="57.000000" r="1.600000"/>
  <circle cx="32.000000" cy="49.000000" r="1.600000"/>
  <circle cx="40.000000" cy="51.000000" r="1.600000"/>
  <circle cx="48.000000" cy="51.000000" r="1.600000"/>
  <circle cx="56.000000" cy="57.000000" r="1.600000"/>
  <circle cx="56.000000" cy="49.000000" r="1.600000"/>
  <circle cx="64.000000" cy="41.000000" r="1.600000"/>
  <circle cx="72.000000" cy="49.000000" r="1.600000"/>
  <circle cx="72.000000" cy="41.000000" r="1.600000"/>
  <circle cx="80.000000" cy="41.000000" r="1.600000"/>
  <circle cx="88.000000" cy="49.000000" r="1.600000"/>
  <circle cx="104.000000" cy="49.000000" r="1.600000"/>
  <circle cx="104.000000" cy="57.000000" r="1.600000"/>
  <circle cx="104.000000" cy="65.000000" r="1.600000"/>
  <circle cx="104.000000" cy="73.000000" r="1.600000"/>
  <circle cx="104.000000" cy="81.000000" r="1.600000"/>
  <circle cx="104.000000" cy="89.000000" r="1.600000"/>
  <circle cx="104.000000" cy="97.000000" r="1.600000"/>
  <circle cx="104.000000" cy="105.000000" r="1.600000"/>
  <circle cx="104.000000" cy="113.000000" r="1.600000"/>
  <circle cx="104.000000" cy="121.000000" r="1.600000"/>
  <circle cx="104.000000" cy="129.000000" r="1.600000"/>
  <circle cx="104.000000" cy="137.000000" r="1.600000"/>
  <circle cx="104.000000" cy="145.000000" r="1.600000"/>
  <circle cx="104.000000" cy="153.000000" r="1.600000"/>
  <circle cx="104.000000" cy="161.000000" r="1.600000"/>
  <circle cx="104.000000" cy="169.000000" r="1.600000"/>
  <circle cx="116.000000" cy="161.000000" r="1.600000"/>
  <circle cx="124.000000" cy="169.000000" r="1.600000"/>
  <circle cx="132.000000" cy="169.000000" r="1.600000"/>
  <circle cx="140.000000" cy="169.000000" r="1.600000"/>
  <circle cx="148.000000" cy="169.000000" r="1.600000"/>
  <circle cx="156.000000" cy="169.000000" r="1.600000"/>
  <circle cx="164.000000" cy="169.000000" r="1.600000"/>
  <circle cx="172.000000" cy="169.000000" r="1.600000"/>
  <circle cx="188.000000" cy="169.000000" r="1.600000"/>
  <circle cx="196.000000" cy="169.000000" r="1.600000"/>
  <circle cx="196.000000" cy="161.000000" r="1.600000"/>
  <circle cx="204.000000" cy="169.000000" r="1.600000"/>
  <circle cx="212.000000" cy="169.000000" r="1.600000"/>
  <circle cx="220.000000" cy="169.000000" r="1.600000"/>
  <circle cx="228.000000" cy="161.000000" r="1.600000"/>
  <circle cx="228.000000" cy="169.000000" r="1.600000"/>
  <circle cx="236.000000" cy="169.000000" r="1.600000"/>
  <circle cx="246.000000" cy="157.000000" r="1.600000"/>
  <circle cx="256.000000" cy="157.000000" r="1.600000"/>
  <circle cx="288.000000" cy="149.000000" r="1.600000"/>
  <circle cx="288.000000" cy="129.000000" r="1.600000"/>
  <circle cx="280.000000" cy="133.000000" r="1.600000"/>
  <circle cx="270.000000" cy="133.000000" r="1.600000"/>
  <circle cx="260.000000" cy="129.000000" r="1.600000"/>
  <circle cx="252.000000" cy="125.000000" r="1.600000"/>
  <circle cx="256.000000" cy="141.000000" r="1.600000"/>
  <circle cx="246.000000" cy="141.000000" r="1.600000"/>
  <circle cx="236.000000" cy="145.000000" r="1.600000"/>
  <circle cx="228.000000" cy="145.000000" r="1.600000"/>
  <circle cx="220.000000" cy="145.000000" r="1.600000"/>
  <circle cx="212.000000" cy="145.000000" r="1.600000"/>
  <circle cx="204.000000" cy="145.000000" r="1.600000"/>
  <circle cx="196.000000" cy="145.000000" r="1.600000"/>
  <circle cx="188.000000" cy="145.000000" r="1.600000"/>
  <circle cx="172.000000" cy="145.000000" r="1.600000"/>
  <circle cx="164.000000" cy="145.000000" r="1.600000"/>
  <circle cx="156.000000" cy="145.000000" r="1.600000"/>
  <circle cx="164.000000" cy="137.000000" r="1.600000"/>
  <circle cx="156.000000" cy="137.000000" r="1.600000"/>
  <circle cx="148.000000" cy="145.000000" r="1.600000"/>
  <circle cx="148.000000" cy="137.000000" r="1.600000"/>
  <circle cx="140.000000" cy="137.000000" r="1.600000"/>
  <circle cx="140.000000" cy="145.000000" r="1.600000"/>
  <circle cx="132.000000" cy="145.000000" r="1.600000"/>
  <circle cx="132.000000" cy="137.000000" r="1.600000"/>
  <circle cx="124.000000" cy="145.000000" r="1.600000"/>
  <circle cx="116.000000" cy="145.000000" r="1.600000"/>
  <circle cx="124.000000" cy="125.000000" r="1.600000"/>
  <circle cx="124.000000" cy="117.000000" r="1.600000"/>
  <circle cx="124.000000" cy="109.000000" r="1.600000"/>
  <circle cx="124.000000" cy="101.000000" r="1.600000"/>
  <circle cx="124.000000" cy="93.000000" r="1.600000"/>
  <circle cx="124.000000" cy="85.000000" r="1.600000"/>
  <circle cx="124.000000" cy="77.000000" r="1.600000"/>
  <circle cx="124.000000" cy="69.000000" r="1.600000"/>
  <circle cx="124.000000" cy="61.000000" r="1.600000"/>
  <circle cx="132.000000" cy="61.000000" r="1.600000"/>
  <circle cx="140.000000" cy="65.000000" r="1.600000"/>
  <circle cx="132.000000" cy="81.000000" r="1.600000"/>
  <circle cx="148.000000" cy="85.000000" r="1.600000"/>
  <circle cx="164.000000" cy="81.000000" r="1.600000"/>
  <circle cx="172.000000" cy="93.000000" r="1.600000"/>
  <circle cx="180.000000" cy="93.000000" r="1.600000"/>
  <circle cx="172.000000" cy="101.000000" r="1.600000"/>
  <circle cx="172.000000" cy="109.000000" r="1.600000"/>
  <circle cx="172.000000" cy="117.000000" r="1.600000"/>
  <circle cx="172.000000" cy="125.000000" r="1.600000"/>
  <circle cx="180.000000" cy="125.000000" r="1.600000"/>
  <circle cx="180.000000" cy="117.000000" r="1.600000"/>
  <circle cx="180.000000" cy="109.000000" r="1.600000"/>
  <circle cx="180.000000" cy="101.000000" r="1.600000"/>
  <circle cx="188.000000" cy="93.000000" r="1.600000"/>
  <circle cx="196.000000" cy="101.000000" r="1.600000"/>
  <circle cx="204.000000" cy="109.000000" r="1.600000"/>
  <circle cx="212.000000" cy="117.000000" r="1.600000"/>
  <circle cx="220.000000" cy="125.000000" r="1.600000"/>
  <circle cx="228.000000" cy="125.000000" r="1.600000"/>
  <circle cx="228.000000" cy="117.000000" r="1.600000"/>
  <circle cx="228.000000" cy="109.000000" r="1.600000"/>
  <circle cx="236.000000" cy="101.000000" r="1.600000"/>
  <circle cx="228.000000" cy="101.000000" r="1.600000"/>
  <circle cx="228.000000" cy="93.000000" r="1.600000"/>
  <circle cx="236.000000" cy="93.000000" r="1.600000"/>
  <circle cx="236.000000" cy="85.000000" r="1.600000"/>
  <circle cx="228.000000" cy="85.000000" r="1.600000"/>
  <circle cx="228.000000" cy="77.000000" r="1.600000"/>
  <circle cx="236.000000" cy="77.000000" r="1.600000"/>
  <circle cx="236.000000" cy="69.000000" r="1.600000"/>
  <circle cx="260.000000" cy="53.000000" r="1.600000"/>
  <circle cx="260.000000" cy="61.000000" r="1.600000"/>
  <circle cx="260.000000" cy="69.000000" r="1.600000"/>
  <text x="0" y="0" font-size="14.000000">2721</text>
</svg>
