<svg viewBox="24.931000 -78.639000 61.578000 122.028000" xmlns="http://www.w3.org/2000/svg">
  <line x1="37.440000" y1="-25.400000" x2="41.110000" y2="-8.360000" stroke="black" />
  <line x1="41.110000" y1="-8.360000" x2="43.220000" y2="-8.230000" stroke="black" />
  <line x1="43.220000" y1="-8.230000" x2="41.390000" y2="-4.430000" stroke="black" />
  <line x1="41.390000" y1="-4.430000" x2="40.240000" y2="-3.410000" stroke="black" />
  <line x1="40.240000" y1="-3.410000" x2="41.380000" y2="-0.530000" stroke="black" />
  <line x1="41.380000" y1="-0.530000" x2="43.150000" y2="-2.580000" stroke="black" />
  <line x1="43.150000" y1="-2.580000" x2="44.500000" y2="-0.340000" stroke="black" />
  <line x1="44.500000" y1="-0.340000" x2="45.500000" y2="1.160000" stroke="black" />
  <line x1="45.500000" y1="1.160000" x2="47.230000" y2="0.410000" stroke="black" />
  <line x1="47.230000" y1="0.410000" x2="47.130000" y2="-1.330000" stroke="black" />
  <line x1="47.130000" y1="-1.330000" x2="48.050000" y2="-1.410000" stroke="black" />
  <line x1="48.050000" y1="-1.410000" x2="48.240000" y2="-4.290000" stroke="black" />
  <line x1="48.240000" y1="-4.290000" x2="50.230000" y2="-4.100000" stroke="black" />
  <line x1="50.230000" y1="-4.100000" x2="51.540000" y2="-8.280000" stroke="black" />
  <line x1="51.540000" y1="-8.280000" x2="52.400000" y2="-8.380000" stroke="black" />
  <line x1="52.400000" y1="-8.380000" x2="53.200000" y2="-6.150000" stroke="black" />
  <line x1="53.200000" y1="-6.150000" x2="54.350000" y2="-5.550000" stroke="black" />
  <line x1="54.350000" y1="-5.550000" x2="55.000000" y2="-7.190000" stroke="black" />
  <line x1="55.000000" y1="-7.190000" x2="55.530000" y2="-4.150000" stroke="black" />
  <line x1="55.530000" y1="-4.150000" x2="55.570000" y2="-3.130000" stroke="black" />
  <line x1="55.570000" y1="-3.130000" x2="56.280000" y2="-3.000000" stroke="black" />
  <line x1="56.280000" y1="-3.000000" x2="57.100000" y2="-2.040000" stroke="black" />
  <line x1="57.100000" y1="-2.040000" x2="54.590000" y2="-1.350000" stroke="black" />
  <line x1="54.590000" y1="-1.350000" x2="53.500000" y2="-1.350000" stroke="black" />
  <line x1="53.500000" y1="-1.350000" x2="53.230000" y2="-1.300000" stroke="black" />
  <line x1="53.230000" y1="-1.300000" x2="53.300000" y2="-2.150000" stroke="black" />
  <line x1="53.300000" y1="-2.150000" x2="53.250000" y2="-2.550000" stroke="black" />
  <line x1="53.250000" y1="-2.550000" x2="52.300000" y2="-1.500000" stroke="black" />
  <line x1="52.300000" y1="-1.500000" x2="51.290000" y2="-3.130000" stroke="black" />
  <line x1="51.290000" y1="-3.130000" x2="51.270000" y2="-2.350000" stroke="black" />
  <line x1="51.270000" y1="-2.350000" x2="50.430000" y2="-1.540000" stroke="black" />
  <line x1="50.430000" y1="-1.540000" x2="51.300000" y2="-0.100000" stroke="black" />
  <line x1="51.300000" y1="-0.100000" x2="50.500000" y2="-0.080000" stroke="black" />
  <line x1="50.500000" y1="-0.080000" x2="49.300000" y2="0.080000" stroke="black" />
  <line x1="49.300000" y1="0.080000" x2="48.520000" y2="2.200000" stroke="black" />
  <line x1="48.520000" y1="2.200000" x2="49.150000" y2="4.020000" stroke="black" />
  <line x1="49.150000" y1="4.020000" x2="49.360000" y2="6.090000" stroke="black" />
  <line x1="49.360000" y1="6.090000" x2="49.140000" y2="6.590000" stroke="black" />
  <line x1="49.140000" y1="6.590000" x2="48.410000" y2="6.120000" stroke="black" />
  <line x1="48.410000" y1="6.120000" x2="47.190000" y2="5.010000" stroke="black" />
  <line x1="47.190000" y1="5.010000" x2="45.450000" y2="4.510000" stroke="black" />
  <line x1="45.450000" y1="4.510000" x2="45.260000" y2="4.240000" stroke="black" />
  <line x1="45.260000" y1="4.240000" x2="45.100000" y2="5.430000" stroke="black" />
  <line x1="45.100000" y1="5.430000" x2="46.120000" y2="6.090000" stroke="black" />
  <line x1="46.120000" y1="6.090000" x2="46.310000" y2="6.380000" stroke="black" />
  <line x1="46.310000" y1="6.380000" x2="46.570000" y2="7.260000" stroke="black" />
  <line x1="46.570000" y1="7.260000" x2="47.230000" y2="8.320000" stroke="black" />
  <line x1="47.230000" y1="8.320000" x2="47.330000" y2="7.350000" stroke="black" />
  <line x1="47.330000" y1="7.350000" x2="48.350000" y2="7.450000" stroke="black" />
  <line x1="48.350000" y1="7.450000" x2="49.030000" y2="8.240000" stroke="black" />
  <line x1="49.030000" y1="8.240000" x2="48.460000" y2="9.110000" stroke="black" />
  <line x1="48.460000" y1="9.110000" x2="49.250000" y2="8.430000" stroke="black" />
  <line x1="49.250000" y1="8.430000" x2="50.070000" y2="8.400000" stroke="black" />
  <line x1="50.070000" y1="8.400000" x2="49.480000" y2="9.560000" stroke="black" />
  <line x1="49.480000" y1="9.560000" x2="49.270000" y2="11.040000" stroke="black" />
  <line x1="49.270000" y1="11.040000" x2="49.010000" y2="12.060000" stroke="black" />
  <line x1="49.010000" y1="12.060000" x2="48.080000" y2="11.340000" stroke="black" />
  <line x1="48.080000" y1="11.340000" x2="47.160000" y2="11.240000" stroke="black" />
  <line x1="47.160000" y1="11.240000" x2="47.480000" y2="13.020000" stroke="black" />
  <line x1="47.480000" y1="13.020000" x2="48.180000" y2="14.180000" stroke="black" />
  <line x1="48.180000" y1="14.180000" x2="49.450000" y2="13.230000" stroke="black" />
  <line x1="49.450000" y1="13.230000" x2="50.050000" y2="14.260000" stroke="black" />
  <line x1="50.050000" y1="14.260000" x2="51.030000" y2="13.440000" stroke="black" />
  <line x1="51.030000" y1="13.440000" x2="50.500000" y2="12.550000" stroke="black" />
  <line x1="50.500000" y1="12.550000" x2="51.190000" y2="12.200000" stroke="black" />
  <line x1="51.190000" y1="12.200000" x2="51.290000" y2="11.580000" stroke="black" />
  <line x1="51.290000" y1="11.580000" x2="50.580000" y2="11.010000" stroke="black" />
  <line x1="50.580000" y1="11.010000" x2="51.190000" y2="9.290000" stroke="black" />
  <line x1="51.190000" y1="9.290000" x2="51.570000" y2="7.370000" stroke="black" />
  <line x1="51.570000" y1="7.370000" x2="51.310000" y2="7.280000" stroke="black" />
  <line x1="51.310000" y1="7.280000" x2="51.320000" y2="7.130000" stroke="black" />
  <line x1="51.320000" y1="7.130000" x2="51.280000" y2="7.130000" stroke="black" />
  <line x1="51.280000" y1="7.130000" x2="51.280000" y2="7.010000" stroke="black" />
  <line x1="51.280000" y1="7.010000" x2="51.170000" y2="7.170000" stroke="black" />
  <line x1="51.170000" y1="7.170000" x2="51.120000" y2="6.470000" stroke="black" />
  <line x1="51.120000" y1="6.470000" x2="50.560000" y2="6.590000" stroke="black" />
  <line x1="50.560000" y1="6.590000" x2="50.440000" y2="7.050000" stroke="black" />
  <line x1="50.440000" y1="7.050000" x2="50.470000" y2="6.050000" stroke="black" />
  <line x1="50.470000" y1="6.050000" x2="50.380000" y2="5.340000" stroke="black" />
  <line x1="50.380000" y1="5.340000" x2="50.500000" y2="4.200000" stroke="black" />
  <line x1="50.500000" y1="4.200000" x2="50.380000" y2="3.040000" stroke="black" />
  <line x1="50.380000" y1="3.040000" x2="51.030000" y2="3.430000" stroke="black" />
  <line x1="51.030000" y1="3.430000" x2="51.130000" y2="4.250000" stroke="black" />
  <line x1="51.130000" y1="4.250000" x2="51.260000" y2="5.280000" stroke="black" />
  <line x1="51.260000" y1="5.280000" x2="51.550000" y2="4.280000" stroke="black" />
  <line x1="51.550000" y1="4.280000" x2="52.050000" y2="5.080000" stroke="black" />
  <line x1="52.050000" y1="5.080000" x2="52.220000" y2="4.540000" stroke="black" />
  <line x1="52.220000" y1="4.540000" x2="53.130000" y2="6.330000" stroke="black" />
  <line x1="53.130000" y1="6.330000" x2="53.040000" y2="8.490000" stroke="black" />
  <line x1="53.040000" y1="8.490000" x2="52.240000" y2="9.440000" stroke="black" />
  <line x1="52.240000" y1="9.440000" x2="52.070000" y2="11.380000" stroke="black" />
  <line x1="52.070000" y1="11.380000" x2="52.310000" y2="13.240000" stroke="black" />
  <line x1="52.310000" y1="13.240000" x2="53.240000" y2="14.320000" stroke="black" />
  <line x1="53.240000" y1="14.320000" x2="54.050000" y2="12.070000" stroke="black" />
  <line x1="54.050000" y1="12.070000" x2="53.330000" y2="9.590000" stroke="black" />
  <line x1="53.330000" y1="9.590000" x2="54.200000" y2="10.080000" stroke="black" />
  <line x1="54.200000" y1="10.080000" x2="55.240000" y2="10.230000" stroke="black" />
  <line x1="55.240000" y1="10.230000" x2="56.090000" y2="10.130000" stroke="black" />
  <line x1="56.090000" y1="10.130000" x2="55.400000" y2="12.350000" stroke="black" />
  <line x1="55.400000" y1="12.350000" x2="55.360000" y2="13.000000" stroke="black" />
  <line x1="55.360000" y1="13.000000" x2="57.430000" y2="11.580000" stroke="black" />
  <line x1="57.430000" y1="11.580000" x2="59.550000" y2="10.450000" stroke="black" />
  <line x1="59.550000" y1="10.450000" x2="63.250000" y2="10.250000" stroke="black" />
  <line x1="63.250000" y1="10.250000" x2="60.230000" y2="5.200000" stroke="black" />
  <line x1="60.230000" y1="5.200000" x2="58.580000" y2="5.450000" stroke="black" />
  <line x1="58.580000" y1="5.450000" x2="60.090000" y2="-1.090000" stroke="black" />
  <line x1="60.090000" y1="-1.090000" x2="62.010000" y2="-6.460000" stroke="black" />
  <line x1="62.010000" y1="-6.460000" x2="64.090000" y2="-21.510000" stroke="black" />
  <line x1="64.090000" y1="-21.510000" x2="64.110000" y2="-51.440000" stroke="black" />
  <line x1="64.110000" y1="-51.440000" x2="76.340000" y2="-68.470000" stroke="black" />
  <line x1="76.340000" y1="-68.470000" x2="70.400000" y2="23.420000" stroke="black" />
  <line x1="70.400000" y1="23.420000" x2="68.260000" y2="17.250000" stroke="black" />
  <line x1="68.260000" y1="17.250000" x2="65.010000" y2="25.280000" stroke="black" />
  <line x1="65.010000" y1="25.280000" x2="61.300000" y2="23.450000" stroke="black" />
  <line x1="61.300000" y1="23.450000" x2="60.100000" y2="24.580000" stroke="black" />
  <line x1="60.100000" y1="24.580000" x2="60.270000" y2="22.170000" stroke="black" />
  <line x1="60.270000" y1="22.170000" x2="59.200000" y2="18.030000" stroke="black" />
  <line x1="59.200000" y1="18.030000" x2="58.250000" y2="15.370000" stroke="black" />
  <line x1="58.250000" y1="15.370000" x2="57.380000" y2="18.180000" stroke="black" />
  <line x1="57.380000" y1="18.180000" x2="54.230000" y2="18.400000" stroke="black" />
  <line x1="54.230000" y1="18.400000" x2="53.080000" y2="18.000000" stroke="black" />
  <line x1="53.080000" y1="18.000000" x2="52.250000" y2="16.550000" stroke="black" />
  <line x1="52.250000" y1="16.550000" x2="51.060000" y2="17.000000" stroke="black" />
  <line x1="51.060000" y1="17.000000" x2="51.460000" y2="19.300000" stroke="black" />
  <line x1="51.460000" y1="19.300000" x2="52.150000" y2="21.000000" stroke="black" />
  <line x1="52.150000" y1="21.000000" x2="53.090000" y2="23.090000" stroke="black" />
  <line x1="53.090000" y1="23.090000" x2="51.150000" y2="22.350000" stroke="black" />
  <line x1="51.150000" y1="22.350000" x2="50.030000" y2="19.580000" stroke="black" />
  <line x1="50.030000" y1="19.580000" x2="50.160000" y2="19.000000" stroke="black" />
  <line x1="50.160000" y1="19.000000" x2="49.500000" y2="18.170000" stroke="black" />
  <line x1="49.500000" y1="18.170000" x2="49.120000" y2="16.370000" stroke="black" />
  <line x1="49.120000" y1="16.370000" x2="48.130000" y2="16.200000" stroke="black" />
  <line x1="48.130000" y1="16.200000" x2="48.090000" y2="17.070000" stroke="black" />
  <line x1="48.090000" y1="17.070000" x2="47.300000" y2="19.050000" stroke="black" />
  <line x1="47.300000" y1="19.050000" x2="48.430000" y2="21.150000" stroke="black" />
  <line x1="48.430000" y1="21.150000" x2="47.320000" y2="21.380000" stroke="black" />
  <line x1="47.320000" y1="21.380000" x2="46.470000" y2="23.360000" stroke="black" />
  <line x1="46.470000" y1="23.360000" x2="45.480000" y2="24.090000" stroke="black" />
  <line x1="45.480000" y1="24.090000" x2="45.390000" y2="25.370000" stroke="black" />
  <line x1="45.390000" y1="25.370000" x2="47.100000" y2="27.350000" stroke="black" />
  <line x1="47.100000" y1="27.350000" x2="44.260000" y2="26.060000" stroke="black" />
  <line x1="44.260000" y1="26.060000" x2="44.110000" y2="28.390000" stroke="black" />
  <line x1="44.110000" y1="28.390000" x2="43.130000" y2="27.550000" stroke="black" />
  <line x1="43.130000" y1="27.550000" x2="42.300000" y2="27.280000" stroke="black" />
  <line x1="42.300000" y1="27.280000" x2="35.100000" y2="33.220000" stroke="black" />
  <line x1="35.100000" y1="33.220000" x2="35.200000" y2="25.090000" stroke="black" />
  <line x1="35.200000" y1="25.090000" x2="37.580000" y2="23.430000" stroke="black" />
  <line x1="37.580000" y1="23.430000" x2="38.150000" y2="21.440000" stroke="black" />
  <line x1="38.150000" y1="21.440000" x2="39.360000" y2="19.560000" stroke="black" />
  <line x1="39.360000" y1="19.560000" x2="40.380000" y2="22.560000" stroke="black" />
  <line x1="40.380000" y1="22.560000" x2="42.090000" y2="24.450000" stroke="black" />
  <line x1="42.090000" y1="24.450000" x2="42.410000" y2="23.190000" stroke="black" />
  <line x1="42.410000" y1="23.190000" x2="41.590000" y2="21.260000" stroke="black" />
  <line x1="41.590000" y1="21.260000" x2="41.200000" y2="19.500000" stroke="black" />
  <line x1="41.200000" y1="19.500000" x2="42.380000" y2="18.070000" stroke="black" />
  <line x1="42.380000" y1="18.070000" x2="43.310000" y2="16.270000" stroke="black" />
  <line x1="43.310000" y1="16.270000" x2="43.520000" y2="18.250000" stroke="black" />
  <line x1="43.520000" y1="18.250000" x2="44.500000" y2="20.300000" stroke="black" />
  <line x1="44.500000" y1="20.300000" x2="45.450000" y2="21.130000" stroke="black" />
  <line x1="45.450000" y1="21.130000" x2="46.150000" y2="20.090000" stroke="black" />
  <line x1="46.150000" y1="20.090000" x2="46.050000" y2="18.130000" stroke="black" />
  <line x1="46.050000" y1="18.130000" x2="45.480000" y2="15.580000" stroke="black" />
  <line x1="45.480000" y1="15.580000" x2="47.050000" y2="15.270000" stroke="black" />
  <line x1="47.050000" y1="15.270000" x2="46.030000" y2="14.310000" stroke="black" />
  <line x1="46.030000" y1="14.310000" x2="45.200000" y2="14.270000" stroke="black" />
  <line x1="45.200000" y1="14.270000" x2="45.400000" y2="13.460000" stroke="black" />
  <line x1="45.400000" y1="13.460000" x2="45.270000" y2="12.210000" stroke="black" />
  <line x1="45.270000" y1="12.210000" x2="45.270000" y2="11.000000" stroke="black" />
  <line x1="45.270000" y1="11.000000" x2="44.290000" y2="11.200000" stroke="black" />
  <line x1="44.290000" y1="11.200000" x2="43.460000" y2="11.150000" stroke="black" />
  <line x1="43.460000" y1="11.150000" x2="43.550000" y2="12.280000" stroke="black" />
  <line x1="43.550000" y1="12.280000" x2="41.540000" y2="12.290000" stroke="black" />
  <line x1="41.540000" y1="12.290000" x2="40.510000" y2="14.170000" stroke="black" />
  <line x1="40.510000" y1="14.170000" x2="41.270000" y2="15.340000" stroke="black" />
  <line x1="41.270000" y1="15.340000" x2="41.070000" y2="16.520000" stroke="black" />
  <line x1="41.070000" y1="16.520000" x2="40.280000" y2="17.150000" stroke="black" />
  <line x1="40.280000" y1="17.150000" x2="38.110000" y2="15.330000" stroke="black" />
  <line x1="38.110000" y1="15.330000" x2="37.300000" y2="15.060000" stroke="black" />
  <line x1="37.300000" y1="15.060000" x2="35.540000" y2="14.310000" stroke="black" />
  <line x1="35.540000" y1="14.310000" x2="38.070000" y2="13.210000" stroke="black" />
  <line x1="38.070000" y1="13.210000" x2="39.200000" y2="9.000000" stroke="black" />
  <line x1="39.200000" y1="9.000000" x2="42.420000" y2="9.270000" stroke="black" />
  <line x1="42.420000" y1="9.270000" x2="44.250000" y2="8.570000" stroke="black" />
  <line x1="44.250000" y1="8.570000" x2="45.280000" y2="9.120000" stroke="black" />
  <line x1="45.280000" y1="9.120000" x2="45.030000" y2="7.400000" stroke="black" />
  <line x1="45.030000" y1="7.400000" x2="43.420000" y2="7.230000" stroke="black" />
  <line x1="43.420000" y1="7.230000" x2="43.420000" y2="7.150000" stroke="black" />
  <line x1="43.420000" y1="7.150000" x2="43.180000" y2="5.240000" stroke="black" />
  <line x1="43.180000" y1="5.240000" x2="43.360000" y2="1.260000" stroke="black" />
  <line x1="43.360000" y1="1.260000" x2="42.300000" y2="1.310000" stroke="black" />
  <line x1="42.300000" y1="1.310000" x2="41.230000" y2="2.110000" stroke="black" />
  <line x1="41.230000" y1="2.110000" x2="39.340000" y2="2.390000" stroke="black" />
  <line x1="39.340000" y1="2.390000" x2="38.540000" y2="1.260000" stroke="black" />
  <line x1="38.540000" y1="1.260000" x2="39.280000" y2="-0.220000" stroke="black" />
  <line x1="39.280000" y1="-0.220000" x2="38.210000" y2="-0.290000" stroke="black" />
  <line x1="38.210000" y1="-0.290000" x2="37.130000" y2="-3.410000" stroke="black" />
  <line x1="37.130000" y1="-3.410000" x2="36.430000" y2="-4.250000" stroke="black" />
  <line x1="36.430000" y1="-4.250000" x2="37.530000" y2="-4.460000" stroke="black" />
  <line x1="37.530000" y1="-4.460000" x2="37.230000" y2="-5.590000" stroke="black" />
  <line x1="37.230000" y1="-5.590000" x2="36.320000" y2="-6.180000" stroke="black" />
  <line x1="36.320000" y1="-6.180000" x2="38.430000" y2="-9.080000" stroke="black" />
  <line x1="38.430000" y1="-9.080000" x2="37.440000" y2="-25.400000" stroke="black" />
  <circle cx="37.440000" cy="-25.400000" r="0.412400"/>
  <circle cx="41.110000" cy="-8.360000" r="0.412400"/>
  <circle cx="43.220000" cy="-8.230000" r="0.412400"/>
  <circle cx="41.390000" cy="-4.430000" r="0.412400"/>
  <circle cx="40.240000" cy="-3.410000" r="0.412400"/>
  <circle cx="41.380000" cy="-0.530000" r="0.412400"/>
  <circle cx="43.150000" cy="-2.580000" r="0.412400"/>
  <circle cx="44.500000" cy="-0.340000" r="0.412400"/>
  <circle cx="45.500000" cy="1.160000" r="0.412400"/>
  <circle cx="47.230000" cy="0.410000" r="0.412400"/>
  <circle cx="47.130000" cy="-1.330000" r="0.412400"/>
  <circle cx="48.050000" cy="-1.410000" r="0.412400"/>
  <circle cx="48.240000" cy="-4.290000" r="0.412400"/>
  <circle cx="50.230000" cy="-4.100000" r="0.412400"/>
  <circle cx="51.540000" cy="-8.280000" r="0.412400"/>
  <circle cx="52.400000" cy="-8.380000" r="0.412400"/>
  <circle cx="53.200000" cy="-6.150000" r="0.412400"/>
  <circle cx="54.350000" cy="-5.550000" r="0.412400"/>
  <circle cx="55.000000" cy="-7.190000" r="0.412400"/>
  <circle cx="55.530000" cy="-4.150000" r="0.412400"/>
  <circle cx="55.570000" cy="-3.130000" r="0.412400"/>
  <circle cx="56.280000" cy="-3.000000" r="0.412400"/>
  <circle cx="57.100000" cy="-2.040000" r="0.412400"/>
  <circle cx="54.590000" cy="-1.350000" r="0.412400"/>
  <circle cx="53.500000" cy="-1.350000" r="0.412400"/>
  <circle cx="53.230000" cy="-1.300000" r="0.412400"/>
  <circle cx="53.300000" cy="-2.150000" r="0.412400"/>
  <circle cx="53.250000" cy="-2.550000" r="0.412400"/>
  <circle cx="52.300000" cy="-1.500000" r="0.412400"/>
  <circle cx="51.290000" cy="-3.130000" r="0.412400"/>
  <circle cx="51.270000" cy="-2.350000" r="0.412400"/>
  <circle cx="50.430000" cy="-1.540000" r="0.412400"/>
  <circle cx="51.300000" cy="-0.100000" r="0.412400"/>
  <circle cx="50.500000" cy="-0.080000" r="0.412400"/>
  <circle cx="49.300000" cy="0.080000" r="0.412400"/>
  <circle cx="48.520000" cy="2.200000" r="0.412400"/>
  <circle cx="49.150000" cy="4.020000" r="0.412400"/>
  <circle cx="49.360000" cy="6.090000" r="0.412400"/>
  <circle cx="49.140000" cy="6.590000" r="0.412400"/>
  <circle cx="48.410000" cy="6.120000" r="0.412400"/>
  <circle cx="47.190000" cy="5.010000" r="0.412400"/>
  <circle cx="45.450000" cy="4.510000" r="0.412400"/>
  <circle cx="45.260000" cy="4.240000" r="0.412400"/>
  <circle cx="45.100000" cy="5.430000" r="0.412400"/>
  <circle cx="46.120000" cy="6.090000" r="0.412400"/>
  <circle cx="46.310000" cy="6.380000" r="0.412400"/>
  <circle cx="46.570000" cy="7.260000" r="0.412400"/>
  <circle cx="47.230000" cy="8.320000" r="0.412400"/>
  <circle cx="47.330000" cy="7.350000" r="0.412400"/>
  <circle cx="48.350000" cy="7.450000" r="0.412400"/>
  <circle cx="49.030000" cy="8.240000" r="0.412400"/>
  <circle cx="48.460000" cy="9.110000" r="0.412400"/>
  <circle cx="49.250000" cy="8.430000" r="0.412400"/>
  <circle cx="50.070000" cy="8.400000" r="0.412400"/>
  <circle cx="49.480000" cy="9.560000" r="0.412400"/>
  <circle cx="49.270000" cy="11.040000" r="0.412400"/>
  <circle cx="49.010000" cy="12.060000" r="0.412400"/>
  <circle cx="48.080000" cy="11.340000" r="0.412400"/>
  <circle cx="47.160000" cy="11.240000" r="0.412400"/>
  <circle cx="47.480000" cy="13.020000" r="0.412400"/>
  <circle cx="48.180000" cy="14.180000" r="0.412400"/>
  <circle cx="49.450000" cy="13.230000" r="0.412400"/>
  <circle cx="50.050000" cy="14.260000" r="0.412400"/>
  <circle cx="51.030000" cy="13.440000" r="0.412400"/>
  <circle cx="50.500000" cy="12.550000" r="0.412400"/>
  <circle cx="51.190000" cy="12.200000" r="0.412400"/>
  <circle cx="51.290000" cy="11.580000" r="0.412400"/>
  <circle cx="50.580000" cy="11.010000" r="0.412400"/>
  <circle cx="51.190000" cy="9.290000" r="0.412400"/>
  <circle cx="51.570000" cy="7.370000" r="0.412400"/>
  <circle cx="51.310000" cy="7.280000" r="0.412400"/>
  <circle cx="51.320000" cy="7.130000" r="0.412400"/>
  <circle cx="51.280000" cy="7.130000" r="0.412400"/>
  <circle cx="51.280000" cy="7.010000" r="0.412400"/>
  <circle cx="51.170000" cy="7.170000" r="0.412400"/>
  <circle cx="51.120000" cy="6.470000" r="0.412400"/>
  <circle cx="50.560000" cy="6.590000" r="0.412400"/>
  <circle cx="50.440000" cy="7.050000" r="0.412400"/>
  <circle cx="50.470000" cy="6.050000" r="0.412400"/>
  <circle cx="50.380000" cy="5.340000" r="0.412400"/>
  <circle cx="50.500000" cy="4.200000" r="0.412400"/>
  <circle cx="50.380000" cy="3.040000" r="0.412400"/>
  <circle cx="51.030000" cy="3.430000" r="0.412400"/>
  <circle cx="51.130000" cy="4.250000" r="0.412400"/>
  <circle cx="51.260000" cy="5.280000" r="0.412400"/>
  <circle cx="51.550000" cy="4.280000" r="0.412400"/>
  <circle cx="52.050000" cy="5.080000" r="0.412400"/>
  <circle cx="52.220000" cy="4.540000" r="0.412400"/>
  <circle cx="53.130000" cy="6.330000" r="0.412400"/>
  <circle cx="53.040000" cy="8.490000" r="0.412400"/>
  <circle cx="52.240000" cy="9.440000" r="0.412400"/>
  <circle cx="52.070000" cy="11.380000" r="0.412400"/>
  <circle cx="52.310000" cy="13.240000" r="0.412400"/>
  <circle cx="53.240000" cy="14.320000" r="0.412400"/>
  <circle cx="54.050000" cy="12.070000" r="0.412400"/>
  <circle cx="53.330000" cy="9.590000" r="0.412400"/>
  <circle cx="54.200000" cy="10.080000" r="0.412400"/>
  <circle cx="55.240000" cy="10.230000" r="0.412400"/>
  <circle cx="56.090000" cy="10.130000" r="0.412400"/>
  <circle cx="55.400000" cy="12.350000" r="0.412400"/>
  <circle cx="55.360000" cy="13.000000" r="0.412400"/>
  <circle cx="57.430000" cy="11.580000" r="0.412400"/>
  <circle cx="59.550000" cy="10.450000" r="0.412400"/>
  <circle cx="63.250000" cy="10.250000" r="0.412400"/>
  <circle cx="60.230000" cy="5.200000" r="0.412400"/>
  <circle cx="58.580000" cy="5.450000" r="0.412400"/>
  <circle cx="60.090000" cy="-1.090000" r="0.412400"/>
  <circle cx="62.010000" cy="-6.460000" r="0.412400"/>
  <circle cx="64.090000" cy="-21.510000" r="0.412400"/>
  <circle cx="64.110000" cy="-51.440000" r="0.412400"/>
  <circle cx="76.340000" cy="-68.470000" r="0.412400"/>
  <circle cx="70.400000" cy="23.420000" r="0.412400"/>
  <circle cx="68.260000" cy="17.250000" r="0.412400"/>
  <circle cx="65.010000" cy="25.280000" r="0.412400"/>
  <circle cx="61.300000" cy="23.450000" r="0.412400"/>
  <circle cx="60.100000" cy="24.580000" r="0.412400"/>
  <circle cx="60.270000" cy="22.170000" r="0.412400"/>
  <circle cx="59.200000" cy="18.030000" r="0.412400"/>
  <circle cx="58.250000" cy="15.370000" r="0.412400"/>
  <circle cx="57.380000" cy="18.180000" r="0.412400"/>
  <circle cx="54.230000" cy="18.400000" r="0.412400"/>
  <circle cx="53.080000" cy="18.000000" r="0.412400"/>
  <circle cx="52.250000" cy="16.550000" r="0.412400"/>
  <circle cx="51.060000" cy="17.000000" r="0.412400"/>
  <circle cx="51.460000" cy="19.300000" r="0.412400"/>
  <circle cx="52.150000" cy="21.000000" r="0.412400"/>
  <circle cx="53.090000" cy="23.090000" r="0.412400"/>
  <circle cx="51.150000" cy="22.350000" r="0.412400"/>
  <circle cx="50.030000" cy="19.580000" r="0.412400"/>
  <circle cx="50.160000" cy="19.000000" r="0.412400"/>
  <circle cx="49.500000" cy="18.170000" r="0.412400"/>
  <circle cx="49.120000" cy="16.370000" r="0.412400"/>
  <circle cx="48.130000" cy="16.200000" r="0.412400"/>
  <circle cx="48.090000" cy="17.070000" r="0.412400"/>
  <circle cx="47.300000" cy="19.050000" r="0.412400"/>
  <circle cx="48.430000" cy="21.150000" r="0.412400"/>
  <circle cx="47.320000" cy="21.380000" r="0.412400"/>
  <circle cx="46.470000" cy="23.360000" r="0.412400"/>
  <circle cx="45.480000" cy="24.090000" r="0.412400"/>
  <circle cx="45.390000" cy="25.370000" r="0.412400"/>
  <circle cx="47.100000" cy="27.350000" r="0.412400"/>
  <circle cx="44.260000" cy="26.060000" r="0.412400"/>
  <circle cx="44.110000" cy="28.390000" r="0.412400"/>
  <circle cx="43.130000" cy="27.550000" r="0.412400"/>
  <circle cx="42.300000" cy="27.280000" r="0.412400"/>
  <circle cx="35.100000" cy="33.220000" r="0.412400"/>
  <circle cx="35.200000" cy="25.090000" r="0.412400"/>
  <circle cx="37.580000" cy="23.430000" r="0.412400"/>
  <circle cx="38.150000" cy="21.440000" r="0.412400"/>
  <circle cx="39.360000" cy="19.560000" r="0.412400"/>
  <circle cx="40.380000" cy="22.560000" r="0.412400"/>
  <circle cx="42.090000" cy="24.450000" r="0.412400"/>
  <circle cx="42.410000" cy="23.190000" r="0.412400"/>
  <circle cx="41.590000" cy="21.260000" r="0.412400"/>
  <circle cx="41.200000" cy="19.500000" r="0.412400"/>
  <circle cx="42.380000" cy="18.070000" r="0.412400"/>
  <circle cx="43.310000" cy="16.270000" r="0.412400"/>
  <circle cx="43.520000" cy="18.250000" r="0.412400"/>
  <circle cx="44.500000" cy="20.300000" r="0.412400"/>
  <circle cx="45.450000" cy="21.130000" r="0.412400"/>
  <circle cx="46.150000" cy="20.090000" r="0.412400"/>
  <circle cx="46.050000" cy="18.130000" r="0.412400"/>
  <circle cx="45.480000" cy="15.580000" r="0.412400"/>
  <circle cx="47.050000" cy="15.270000" r="0.412400"/>
  <circle cx="46.030000" cy="14.310000" r="0.412400"/>
  <circle cx="45.200000" cy="14.270000" r="0.412400"/>
  <circle cx="45.400000" cy="13.460000" r="0.412400"/>
  <circle cx="45.270000" cy="12.210000" r="0.412400"/>
  <circle cx="45.270000" cy="11.000000" r="0.412400"/>
  <circle cx="44.290000" cy="11.200000" r="0.412400"/>
  <circle cx="43.460000" cy="11.150000" r="0.412400"/>
  <circle cx="43.550000" cy="12.280000" r="0.412400"/>
  <circle cx="41.540000" cy="12.290000" r="0.412400"/>
  <circle cx="40.510000" cy="14.170000" r="0.412400"/>
  <circle cx="41.270000" cy="15.340000" r="0.412400"/>
  <circle cx="41.070000" cy="16.520000" r="0.412400"/>
  <circle cx="40.280000" cy="17.150000" r="0.412400"/>
  <circle cx="38.110000" cy="15.330000" r="0.412400"/>
  <circle cx="37.300000" cy="15.060000" r="0.412400"/>
  <circle cx="35.540000" cy="14.310000" r="0.412400"/>
  <circle cx="38.070000" cy="13.210000" r="0.412400"/>
  <circle cx="39.200000" cy="9.000000" r="0.412400"/>
  <circle cx="42.420000" cy="9.270000" r="0.412400"/>
  <circle cx="44.250000" cy="8.570000" r="0.412400"/>
  <circle cx="45.280000" cy="9.120000" r="0.412400"/>
  <circle cx="45.030000" cy="7.400000" r="0.412400"/>
  <circle cx="43.420000" cy="7.230000" r="0.412400"/>
  <circle cx="43.420000" cy="7.150000" r="0.412400"/>
  <circle cx="43.180000" cy="5.240000" r="0.412400"/>
  <circle cx="43.360000" cy="1.260000" r="0.412400"/>
  <circle cx="42.300000" cy="1.310000" r="0.412400"/>
  <circle cx="41.230000" cy="2.110000" r="0.412400"/>
  <circle cx="39.340000" cy="2.390000" r="0.412400"/>
  <circle cx="38.540000" cy="1.260000" r="0.412400"/>
  <circle cx="39.280000" cy="-0.220000" r="0.412400"/>
  <circle cx="38.210000" cy="-0.290000" r="0.412400"/>
  <circle cx="37.130000" cy="-3.410000" r="0.412400"/>
  <circle cx="36.430000" cy="-4.250000" r="0.412400"/>
  <circle cx="37.530000" cy="-4.460000" r="0.412400"/>
  <circle cx="37.230000" cy="-5.590000" r="0.412400"/>
  <circle cx="36.320000" cy="-6.180000" r="0.412400"/>
  <circle cx="38.430000" cy="-9.080000" r="0.412400"/>
  <text x="0" y="0" font-size="5.084500">547</text>
</svg>
