<svg viewBox="30.344000 -8.346000 14.022000 37.632000" xmlns="http://www.w3.org/2000/svg">
  <line x1="41.230000" y1="9.100000" x2="36.080002" y2="-5.210000" stroke="black" stroke-width="0.077500" />
  <line x1="36.080002" y1="-5.210000" x2="33.480000" y2="10.540000" stroke="black" stroke-width="0.077500" />
  <line x1="33.480000" y1="10.540000" x2="35.490002" y2="14.320000" stroke="black" stroke-width="0.077500" />
  <line x1="35.490002" y1="14.320000" x2="37.509998" y2="15.170000" stroke="black" stroke-width="0.077500" />
  <line x1="37.509998" y1="15.170000" x2="37.520000" y2="20.440001" stroke="black" stroke-width="0.077500" />
  <line x1="37.520000" y1="20.440001" x2="37.570000" y2="22.559999" stroke="black" stroke-width="0.077500" />
  <line x1="37.570000" y1="22.559999" x2="36.259998" y2="23.120001" stroke="black" stroke-width="0.077500" />
  <line x1="36.259998" y1="23.120001" x2="36.090000" y2="23.000000" stroke="black" stroke-width="0.077500" />
  <line x1="36.090000" y1="23.000000" x2="38.090000" y2="24.360001" stroke="black" stroke-width="0.077500" />
  <line x1="38.090000" y1="24.360001" x2="39.570000" y2="26.150000" stroke="black" stroke-width="0.077500" />
  <line x1="39.570000" y1="26.150000" x2="40.560001" y2="25.320000" stroke="black" stroke-width="0.077500" />
  <line x1="40.560001" y1="25.320000" x2="38.240002" y2="20.420000" stroke="black" stroke-width="0.077500" />
  <line x1="38.240002" y1="20.420000" x2="39.360001" y2="19.559999" stroke="black" stroke-width="0.077500" />
  <line x1="39.360001" y1="19.559999" x2="38.150002" y2="15.350000" stroke="black" stroke-width="0.077500" />
  <line x1="38.150002" y1="15.350000" x2="38.470001" y2="15.130000" stroke="black" stroke-width="0.077500" />
  <line x1="38.470001" y1="15.130000" x2="40.369999" y2="14.230000" stroke="black" stroke-width="0.077500" />
  <line x1="40.369999" y1="14.230000" x2="40.330002" y2="14.150000" stroke="black" stroke-width="0.077500" />
  <line x1="40.330002" y1="14.150000" x2="41.169998" y2="13.050000" stroke="black" stroke-width="0.077500" />
  <line x1="41.169998" y1="13.050000" x2="40.439999" y2="13.570000" stroke="black" stroke-width="0.077500" />
  <line x1="40.439999" y1="13.570000" x2="38.419998" y2="13.110000" stroke="black" stroke-width="0.077500" />
  <line x1="38.419998" y1="13.110000" x2="37.560001" y2="12.190000" stroke="black" stroke-width="0.077500" />
  <line x1="37.560001" y1="12.190000" x2="41.230000" y2="9.100000" stroke="black" stroke-width="0.077500" />
  <circle cx="41.230000" cy="9.100000" r="0.077500"/>
  <circle cx="36.080002" cy="-5.210000" r="0.077500"/>
  <circle cx="33.480000" cy="10.540000" r="0.077500"/>
  <circle cx="35.490002" cy="14.320000" r="0.077500"/>
  <circle cx="37.509998" cy="15.170000" r="0.077500"/>
  <circle cx="37.520000" cy="20.440001" r="0.077500"/>
  <circle cx="37.570000" cy="22.559999" r="0.077500"/>
  <circle cx="36.259998" cy="23.120001" r="0.077500"/>
  <circle cx="36.090000" cy="23.000000" r="0.077500"/>
  <circle cx="38.090000" cy="24.360001" r="0.077500"/>
  <circle cx="39.570000" cy="26.150000" r="0.077500"/>
  <circle cx="40.560001" cy="25.320000" r="0.077500"/>
  <circle cx="38.240002" cy="20.420000" r="0.077500"/>
  <circle cx="39.360001" cy="19.559999" r="0.077500"/>
  <circle cx="38.150002" cy="15.350000" r="0.077500"/>
  <circle cx="38.470001" cy="15.130000" r="0.077500"/>
  <circle cx="40.369999" cy="14.230000" r="0.077500"/>
  <circle cx="40.330002" cy="14.150000" r="0.077500"/>
  <circle cx="41.169998" cy="13.050000" r="0.077500"/>
  <circle cx="40.439999" cy="13.570000" r="0.077500"/>
  <circle cx="38.419998" cy="13.110000" r="0.077500"/>
  <circle cx="37.560001" cy="12.190000" r="0.077500"/>
  <text x="0" y="0" font-size="1.568000">72</text>
</svg>
