<svg viewBox="-86.600000 -45.600000 1135.200000 945.200000" xmlns="http://www.w3.org/2000/svg">
  <line x1="859.000000" y1="717.000000" x2="954.000000" y2="493.000000" stroke="black" stroke-width="7.560000" />
  <line x1="954.000000" y1="493.000000" x2="930.000000" y2="193.000000" stroke="black" stroke-width="7.560000" />
  <line x1="930.000000" y1="193.000000" x2="949.000000" y2="177.000000" stroke="black" stroke-width="7.560000" />
  <line x1="949.000000" y1="177.000000" x2="921.000000" y2="49.000000" stroke="black" stroke-width="7.560000" />
  <line x1="921.000000" y1="49.000000" x2="571.000000" y2="204.000000" stroke="black" stroke-width="7.560000" />
  <line x1="571.000000" y1="204.000000" x2="150.000000" y2="133.000000" stroke="black" stroke-width="7.560000" />
  <line x1="150.000000" y1="133.000000" x2="8.000000" y2="797.000000" stroke="black" stroke-width="7.560000" />
  <line x1="8.000000" y1="797.000000" x2="536.000000" y2="541.000000" stroke="black" stroke-width="7.560000" />
  <line x1="536.000000" y1="541.000000" x2="765.000000" y2="805.000000" stroke="black" stroke-width="7.560000" />
  <line x1="765.000000" y1="805.000000" x2="859.000000" y2="717.000000" stroke="black" stroke-width="7.560000" />
  <circle cx="859.000000" cy="717.000000" r="7.560000"/>
  <circle cx="954.000000" cy="493.000000" r="7.560000"/>
  <circle cx="930.000000" cy="193.000000" r="7.560000"/>
  <circle cx="949.000000" cy="177.000000" r="7.560000"/>
  <circle cx="921.000000" cy="49.000000" r="7.560000"/>
  <circle cx="571.000000" cy="204.000000" r="7.560000"/>
  <circle cx="150.000000" cy="133.000000" r="7.560000"/>
  <circle cx="8.000000" cy="797.000000" r="7.560000"/>
  <circle cx="536.000000" cy="541.000000" r="7.560000"/>
  <circle cx="765.000000" cy="805.000000" r="7.560000"/>
  <text x="0" y="0" font-size="47.300000">3254</text>
</svg>
