<svg viewBox="-88.900000 -67.900000 1139.800000 1162.800000" xmlns="http://www.w3.org/2000/svg">
  <line x1="377.000000" y1="84.000000" x2="610.000000" y2="67.000000" stroke="black" stroke-width="9.460000" />
  <line x1="610.000000" y1="67.000000" x2="571.000000" y2="204.000000" stroke="black" stroke-width="9.460000" />
  <line x1="571.000000" y1="204.000000" x2="677.000000" y2="185.000000" stroke="black" stroke-width="9.460000" />
  <line x1="677.000000" y1="185.000000" x2="689.000000" y2="242.000000" stroke="black" stroke-width="9.460000" />
  <line x1="689.000000" y1="242.000000" x2="779.000000" y2="177.000000" stroke="black" stroke-width="9.460000" />
  <line x1="779.000000" y1="177.000000" x2="817.000000" y2="29.000000" stroke="black" stroke-width="9.460000" />
  <line x1="817.000000" y1="29.000000" x2="921.000000" y2="49.000000" stroke="black" stroke-width="9.460000" />
  <line x1="921.000000" y1="49.000000" x2="949.000000" y2="177.000000" stroke="black" stroke-width="9.460000" />
  <line x1="949.000000" y1="177.000000" x2="930.000000" y2="193.000000" stroke="black" stroke-width="9.460000" />
  <line x1="930.000000" y1="193.000000" x2="954.000000" y2="493.000000" stroke="black" stroke-width="9.460000" />
  <line x1="954.000000" y1="493.000000" x2="801.000000" y2="620.000000" stroke="black" stroke-width="9.460000" />
  <line x1="801.000000" y1="620.000000" x2="859.000000" y2="717.000000" stroke="black" stroke-width="9.460000" />
  <line x1="859.000000" y1="717.000000" x2="765.000000" y2="805.000000" stroke="black" stroke-width="9.460000" />
  <line x1="765.000000" y1="805.000000" x2="711.000000" y2="822.000000" stroke="black" stroke-width="9.460000" />
  <line x1="711.000000" y1="822.000000" x2="639.000000" y2="991.000000" stroke="black" stroke-width="9.460000" />
  <line x1="639.000000" y1="991.000000" x2="521.000000" y2="998.000000" stroke="black" stroke-width="9.460000" />
  <line x1="521.000000" y1="998.000000" x2="527.000000" y2="853.000000" stroke="black" stroke-width="9.460000" />
  <line x1="527.000000" y1="853.000000" x2="353.000000" y2="871.000000" stroke="black" stroke-width="9.460000" />
  <line x1="353.000000" y1="871.000000" x2="8.000000" y2="797.000000" stroke="black" stroke-width="9.460000" />
  <line x1="8.000000" y1="797.000000" x2="133.000000" y2="751.000000" stroke="black" stroke-width="9.460000" />
  <line x1="133.000000" y1="751.000000" x2="149.000000" y2="676.000000" stroke="black" stroke-width="9.460000" />
  <line x1="149.000000" y1="676.000000" x2="297.000000" y2="738.000000" stroke="black" stroke-width="9.460000" />
  <line x1="297.000000" y1="738.000000" x2="536.000000" y2="541.000000" stroke="black" stroke-width="9.460000" />
  <line x1="536.000000" y1="541.000000" x2="216.000000" y2="441.000000" stroke="black" stroke-width="9.460000" />
  <line x1="216.000000" y1="441.000000" x2="136.000000" y2="364.000000" stroke="black" stroke-width="9.460000" />
  <line x1="136.000000" y1="364.000000" x2="243.000000" y2="303.000000" stroke="black" stroke-width="9.460000" />
  <line x1="243.000000" y1="303.000000" x2="94.000000" y2="234.000000" stroke="black" stroke-width="9.460000" />
  <line x1="94.000000" y1="234.000000" x2="76.000000" y2="182.000000" stroke="black" stroke-width="9.460000" />
  <line x1="76.000000" y1="182.000000" x2="150.000000" y2="133.000000" stroke="black" stroke-width="9.460000" />
  <line x1="150.000000" y1="133.000000" x2="377.000000" y2="84.000000" stroke="black" stroke-width="9.460000" />
  <circle cx="377.000000" cy="84.000000" r="9.460000"/>
  <circle cx="610.000000" cy="67.000000" r="9.460000"/>
  <circle cx="571.000000" cy="204.000000" r="9.460000"/>
  <circle cx="677.000000" cy="185.000000" r="9.460000"/>
  <circle cx="689.000000" cy="242.000000" r="9.460000"/>
  <circle cx="779.000000" cy="177.000000" r="9.460000"/>
  <circle cx="817.000000" cy="29.000000" r="9.460000"/>
  <circle cx="921.000000" cy="49.000000" r="9.460000"/>
  <circle cx="949.000000" cy="177.000000" r="9.460000"/>
  <circle cx="930.000000" cy="193.000000" r="9.460000"/>
  <circle cx="954.000000" cy="493.000000" r="9.460000"/>
  <circle cx="801.000000" cy="620.000000" r="9.460000"/>
  <circle cx="859.000000" cy="717.000000" r="9.460000"/>
  <circle cx="765.000000" cy="805.000000" r="9.460000"/>
  <circle cx="711.000000" cy="822.000000" r="9.460000"/>
  <circle cx="639.000000" cy="991.000000" r="9.460000"/>
  <circle cx="521.000000" cy="998.000000" r="9.460000"/>
  <circle cx="527.000000" cy="853.000000" r="9.460000"/>
  <circle cx="353.000000" cy="871.000000" r="9.460000"/>
  <circle cx="8.000000" cy="797.000000" r="9.460000"/>
  <circle cx="133.000000" cy="751.000000" r="9.460000"/>
  <circle cx="149.000000" cy="676.000000" r="9.460000"/>
  <circle cx="297.000000" cy="738.000000" r="9.460000"/>
  <circle cx="536.000000" cy="541.000000" r="9.460000"/>
  <circle cx="216.000000" cy="441.000000" r="9.460000"/>
  <circle cx="136.000000" cy="364.000000" r="9.460000"/>
  <circle cx="243.000000" cy="303.000000" r="9.460000"/>
  <circle cx="94.000000" cy="234.000000" r="9.460000"/>
  <circle cx="76.000000" cy="182.000000" r="9.460000"/>
  <circle cx="150.000000" cy="133.000000" r="9.460000"/>
  <text x="0" y="0" font-size="48.450000">4631</text>
</svg>
